<?xml version="1.0" encoding="utf-8" ?>
<svg baseProfile="full" height="500" version="1.1" width="500" xmlns="http://www.w3.org/2000/svg" xmlns:ev="http://www.w3.org/2001/xml-events" xmlns:xlink="http://www.w3.org/1999/xlink"><defs /><rect fill="white" height="50" width="50" x="0" y="0" /><line stroke="orange" x1="0" x2="50" y1="0" y2="50" /><rect fill="white" height="50" width="50" x="0" y="50" /><line stroke="blue" x1="50" x2="0" y1="50" y2="100" /><rect fill="white" height="50" width="50" x="0" y="100" /><line stroke="red" x1="0" x2="50" y1="100" y2="150" /><rect fill="white" height="50" width="50" x="0" y="150" /><line stroke="green" x1="0" x2="50" y1="150" y2="200" /><rect fill="white" height="50" width="50" x="0" y="200" /><line stroke="green" x1="50" x2="0" y1="200" y2="250" /><rect fill="white" height="50" width="50" x="0" y="250" /><line stroke="orange" x1="0" x2="50" y1="250" y2="300" /><rect fill="white" height="50" width="50" x="0" y="300" /><line stroke="orange" x1="50" x2="0" y1="300" y2="350" /><rect fill="white" height="50" width="50" x="0" y="350" /><line stroke="black" x1="0" x2="50" y1="350" y2="400" /><rect fill="white" height="50" width="50" x="0" y="400" /><line stroke="blue" x1="0" x2="50" y1="400" y2="450" /><rect fill="white" height="50" width="50" x="0" y="450" /><line stroke="red" x1="0" x2="50" y1="450" y2="500" /><rect fill="white" height="50" width="50" x="50" y="0" /><line stroke="blue" x1="50" x2="100" y1="0" y2="50" /><rect fill="white" height="50" width="50" x="50" y="50" /><line stroke="green" x1="100" x2="50" y1="50" y2="100" /><rect fill="white" height="50" width="50" x="50" y="100" /><line stroke="blue" x1="50" x2="100" y1="100" y2="150" /><rect fill="white" height="50" width="50" x="50" y="150" /><line stroke="red" x1="50" x2="100" y1="150" y2="200" /><rect fill="white" height="50" width="50" x="50" y="200" /><line stroke="blue" x1="50" x2="100" y1="200" y2="250" /><rect fill="white" height="50" width="50" x="50" y="250" /><line stroke="red" x1="50" x2="100" y1="250" y2="300" /><rect fill="white" height="50" width="50" x="50" y="300" /><line stroke="black" x1="100" x2="50" y1="300" y2="350" /><rect fill="white" height="50" width="50" x="50" y="350" /><line stroke="red" x1="100" x2="50" y1="350" y2="400" /><rect fill="white" height="50" width="50" x="50" y="400" /><line stroke="orange" x1="50" x2="100" y1="400" y2="450" /><rect fill="white" height="50" width="50" x="50" y="450" /><line stroke="orange" x1="100" x2="50" y1="450" y2="500" /><rect fill="white" height="50" width="50" x="100" y="0" /><line stroke="blue" x1="150" x2="100" y1="0" y2="50" /><rect fill="white" height="50" width="50" x="100" y="50" /><line stroke="orange" x1="100" x2="150" y1="50" y2="100" /><rect fill="white" height="50" width="50" x="100" y="100" /><line stroke="orange" x1="150" x2="100" y1="100" y2="150" /><rect fill="white" height="50" width="50" x="100" y="150" /><line stroke="black" x1="100" x2="150" y1="150" y2="200" /><rect fill="white" height="50" width="50" x="100" y="200" /><line stroke="orange" x1="150" x2="100" y1="200" y2="250" /><rect fill="white" height="50" width="50" x="100" y="250" /><line stroke="green" x1="100" x2="150" y1="250" y2="300" /><rect fill="white" height="50" width="50" x="100" y="300" /><line stroke="green" x1="150" x2="100" y1="300" y2="350" /><rect fill="white" height="50" width="50" x="100" y="350" /><line stroke="black" x1="100" x2="150" y1="350" y2="400" /><rect fill="white" height="50" width="50" x="100" y="400" /><line stroke="blue" x1="100" x2="150" y1="400" y2="450" /><rect fill="white" height="50" width="50" x="100" y="450" /><line stroke="blue" x1="100" x2="150" y1="450" y2="500" /><rect fill="white" height="50" width="50" x="150" y="0" /><line stroke="orange" x1="150" x2="200" y1="0" y2="50" /><rect fill="white" height="50" width="50" x="150" y="50" /><line stroke="red" x1="200" x2="150" y1="50" y2="100" /><rect fill="white" height="50" width="50" x="150" y="100" /><line stroke="green" x1="150" x2="200" y1="100" y2="150" /><rect fill="white" height="50" width="50" x="150" y="150" /><line stroke="blue" x1="200" x2="150" y1="150" y2="200" /><rect fill="white" height="50" width="50" x="150" y="200" /><line stroke="green" x1="150" x2="200" y1="200" y2="250" /><rect fill="white" height="50" width="50" x="150" y="250" /><line stroke="black" x1="150" x2="200" y1="250" y2="300" /><rect fill="white" height="50" width="50" x="150" y="300" /><line stroke="red" x1="200" x2="150" y1="300" y2="350" /><rect fill="white" height="50" width="50" x="150" y="350" /><line stroke="orange" x1="150" x2="200" y1="350" y2="400" /><rect fill="white" height="50" width="50" x="150" y="400" /><line stroke="orange" x1="200" x2="150" y1="400" y2="450" /><rect fill="white" height="50" width="50" x="150" y="450" /><line stroke="red" x1="200" x2="150" y1="450" y2="500" /><rect fill="white" height="50" width="50" x="200" y="0" /><line stroke="red" x1="200" x2="250" y1="0" y2="50" /><rect fill="white" height="50" width="50" x="200" y="50" /><line stroke="blue" x1="200" x2="250" y1="50" y2="100" /><rect fill="white" height="50" width="50" x="200" y="100" /><line stroke="blue" x1="200" x2="250" y1="100" y2="150" /><rect fill="white" height="50" width="50" x="200" y="150" /><line stroke="orange" x1="200" x2="250" y1="150" y2="200" /><rect fill="white" height="50" width="50" x="200" y="200" /><line stroke="orange" x1="200" x2="250" y1="200" y2="250" /><rect fill="white" height="50" width="50" x="200" y="250" /><line stroke="red" x1="200" x2="250" y1="250" y2="300" /><rect fill="white" height="50" width="50" x="200" y="300" /><line stroke="black" x1="200" x2="250" y1="300" y2="350" /><rect fill="white" height="50" width="50" x="200" y="350" /><line stroke="blue" x1="250" x2="200" y1="350" y2="400" /><rect fill="white" height="50" width="50" x="200" y="400" /><line stroke="red" x1="200" x2="250" y1="400" y2="450" /><rect fill="white" height="50" width="50" x="200" y="450" /><line stroke="black" x1="250" x2="200" y1="450" y2="500" /><rect fill="white" height="50" width="50" x="250" y="0" /><line stroke="green" x1="300" x2="250" y1="0" y2="50" /><rect fill="white" height="50" width="50" x="250" y="50" /><line stroke="black" x1="250" x2="300" y1="50" y2="100" /><rect fill="white" height="50" width="50" x="250" y="100" /><line stroke="blue" x1="250" x2="300" y1="100" y2="150" /><rect fill="white" height="50" width="50" x="250" y="150" /><line stroke="green" x1="250" x2="300" y1="150" y2="200" /><rect fill="white" height="50" width="50" x="250" y="200" /><line stroke="black" x1="250" x2="300" y1="200" y2="250" /><rect fill="white" height="50" width="50" x="250" y="250" /><line stroke="orange" x1="250" x2="300" y1="250" y2="300" /><rect fill="white" height="50" width="50" x="250" y="300" /><line stroke="blue" x1="250" x2="300" y1="300" y2="350" /><rect fill="white" height="50" width="50" x="250" y="350" /><line stroke="orange" x1="250" x2="300" y1="350" y2="400" /><rect fill="white" height="50" width="50" x="250" y="400" /><line stroke="black" x1="300" x2="250" y1="400" y2="450" /><rect fill="white" height="50" width="50" x="250" y="450" /><line stroke="black" x1="300" x2="250" y1="450" y2="500" /><rect fill="white" height="50" width="50" x="300" y="0" /><line stroke="blue" x1="300" x2="350" y1="0" y2="50" /><rect fill="white" height="50" width="50" x="300" y="50" /><line stroke="blue" x1="350" x2="300" y1="50" y2="100" /><rect fill="white" height="50" width="50" x="300" y="100" /><line stroke="black" x1="350" x2="300" y1="100" y2="150" /><rect fill="white" height="50" width="50" x="300" y="150" /><line stroke="green" x1="300" x2="350" y1="150" y2="200" /><rect fill="white" height="50" width="50" x="300" y="200" /><line stroke="orange" x1="350" x2="300" y1="200" y2="250" /><rect fill="white" height="50" width="50" x="300" y="250" /><line stroke="green" x1="300" x2="350" y1="250" y2="300" /><rect fill="white" height="50" width="50" x="300" y="300" /><line stroke="green" x1="300" x2="350" y1="300" y2="350" /><rect fill="white" height="50" width="50" x="300" y="350" /><line stroke="black" x1="350" x2="300" y1="350" y2="400" /><rect fill="white" height="50" width="50" x="300" y="400" /><line stroke="green" x1="350" x2="300" y1="400" y2="450" /><rect fill="white" height="50" width="50" x="300" y="450" /><line stroke="green" x1="300" x2="350" y1="450" y2="500" /><rect fill="white" height="50" width="50" x="350" y="0" /><line stroke="green" x1="350" x2="400" y1="0" y2="50" /><rect fill="white" height="50" width="50" x="350" y="50" /><line stroke="orange" x1="350" x2="400" y1="50" y2="100" /><rect fill="white" height="50" width="50" x="350" y="100" /><line stroke="red" x1="400" x2="350" y1="100" y2="150" /><rect fill="white" height="50" width="50" x="350" y="150" /><line stroke="black" x1="400" x2="350" y1="150" y2="200" /><rect fill="white" height="50" width="50" x="350" y="200" /><line stroke="orange" x1="400" x2="350" y1="200" y2="250" /><rect fill="white" height="50" width="50" x="350" y="250" /><line stroke="red" x1="350" x2="400" y1="250" y2="300" /><rect fill="white" height="50" width="50" x="350" y="300" /><line stroke="blue" x1="400" x2="350" y1="300" y2="350" /><rect fill="white" height="50" width="50" x="350" y="350" /><line stroke="black" x1="350" x2="400" y1="350" y2="400" /><rect fill="white" height="50" width="50" x="350" y="400" /><line stroke="red" x1="400" x2="350" y1="400" y2="450" /><rect fill="white" height="50" width="50" x="350" y="450" /><line stroke="black" x1="350" x2="400" y1="450" y2="500" /><rect fill="white" height="50" width="50" x="400" y="0" /><line stroke="blue" x1="450" x2="400" y1="0" y2="50" /><rect fill="white" height="50" width="50" x="400" y="50" /><line stroke="blue" x1="450" x2="400" y1="50" y2="100" /><rect fill="white" height="50" width="50" x="400" y="100" /><line stroke="green" x1="400" x2="450" y1="100" y2="150" /><rect fill="white" height="50" width="50" x="400" y="150" /><line stroke="blue" x1="400" x2="450" y1="150" y2="200" /><rect fill="white" height="50" width="50" x="400" y="200" /><line stroke="black" x1="400" x2="450" y1="200" y2="250" /><rect fill="white" height="50" width="50" x="400" y="250" /><line stroke="black" x1="400" x2="450" y1="250" y2="300" /><rect fill="white" height="50" width="50" x="400" y="300" /><line stroke="orange" x1="450" x2="400" y1="300" y2="350" /><rect fill="white" height="50" width="50" x="400" y="350" /><line stroke="black" x1="400" x2="450" y1="350" y2="400" /><rect fill="white" height="50" width="50" x="400" y="400" /><line stroke="black" x1="400" x2="450" y1="400" y2="450" /><rect fill="white" height="50" width="50" x="400" y="450" /><line stroke="blue" x1="450" x2="400" y1="450" y2="500" /><rect fill="white" height="50" width="50" x="450" y="0" /><line stroke="blue" x1="500" x2="450" y1="0" y2="50" /><rect fill="white" height="50" width="50" x="450" y="50" /><line stroke="red" x1="500" x2="450" y1="50" y2="100" /><rect fill="white" height="50" width="50" x="450" y="100" /><line stroke="orange" x1="450" x2="500" y1="100" y2="150" /><rect fill="white" height="50" width="50" x="450" y="150" /><line stroke="green" x1="500" x2="450" y1="150" y2="200" /><rect fill="white" height="50" width="50" x="450" y="200" /><line stroke="red" x1="450" x2="500" y1="200" y2="250" /><rect fill="white" height="50" width="50" x="450" y="250" /><line stroke="red" x1="450" x2="500" y1="250" y2="300" /><rect fill="white" height="50" width="50" x="450" y="300" /><line stroke="green" x1="500" x2="450" y1="300" y2="350" /><rect fill="white" height="50" width="50" x="450" y="350" /><line stroke="red" x1="500" x2="450" y1="350" y2="400" /><rect fill="white" height="50" width="50" x="450" y="400" /><line stroke="black" x1="450" x2="500" y1="400" y2="450" /><rect fill="white" height="50" width="50" x="450" y="450" /><line stroke="black" x1="450" x2="500" y1="450" y2="500" /></svg>