<?xml version="1.0" encoding="utf-8" ?>
<svg baseProfile="full" height="500" version="1.1" width="500" xmlns="http://www.w3.org/2000/svg" xmlns:ev="http://www.w3.org/2001/xml-events" xmlns:xlink="http://www.w3.org/1999/xlink"><defs /><path d="M 15,0 L 15,15 L 0,15 Z" fill="black" /><path d="M 0,15 L 15,15 L 0,30 Z" fill="black" /><path d="M 0,30 L 15,30 L 0,45 Z" fill="black" /><path d="M 0,45 L 15,45 L 0,60 Z" fill="black" /><path d="M 15,60 L 15,75 L 0,60 Z" fill="black" /><path d="M 0,75 L 15,75 L 0,90 Z" fill="black" /><path d="M 15,90 L 15,105 L 0,90 Z" fill="black" /><path d="M 15,105 L 15,120 L 0,120 Z" fill="black" /><path d="M 15,120 L 15,135 L 0,135 Z" fill="black" /><path d="M 0,135 L 15,135 L 0,150 Z" fill="black" /><path d="M 15,150 L 0,150 L 15,165 Z" fill="black" /><path d="M 0,165 L 15,165 L 0,180 Z" fill="black" /><path d="M 0,180 L 15,180 L 0,195 Z" fill="black" /><path d="M 0,195 L 15,195 L 0,210 Z" fill="black" /><path d="M 15,210 L 15,225 L 0,225 Z" fill="black" /><path d="M 15,225 L 15,240 L 0,240 Z" fill="black" /><path d="M 15,240 L 15,255 L 0,255 Z" fill="black" /><path d="M 15,255 L 0,255 L 15,270 Z" fill="black" /><path d="M 15,270 L 15,285 L 0,270 Z" fill="black" /><path d="M 0,285 L 15,285 L 0,300 Z" fill="black" /><path d="M 15,300 L 0,300 L 15,315 Z" fill="black" /><path d="M 0,315 L 15,315 L 0,330 Z" fill="black" /><path d="M 0,330 L 15,330 L 0,345 Z" fill="black" /><path d="M 0,345 L 15,345 L 0,360 Z" fill="black" /><path d="M 15,360 L 15,375 L 0,360 Z" fill="black" /><path d="M 15,375 L 0,375 L 15,390 Z" fill="black" /><path d="M 0,390 L 15,390 L 0,405 Z" fill="black" /><path d="M 15,405 L 15,420 L 0,420 Z" fill="black" /><path d="M 15,420 L 15,435 L 0,420 Z" fill="black" /><path d="M 15,435 L 15,450 L 0,450 Z" fill="black" /><path d="M 15,450 L 0,450 L 15,465 Z" fill="black" /><path d="M 0,465 L 15,465 L 0,480 Z" fill="black" /><path d="M 30,0 L 30,15 L 15,0 Z" fill="black" /><path d="M 30,15 L 30,30 L 15,30 Z" fill="black" /><path d="M 30,30 L 30,45 L 15,45 Z" fill="black" /><path d="M 15,45 L 30,45 L 15,60 Z" fill="black" /><path d="M 30,60 L 30,75 L 15,75 Z" fill="black" /><path d="M 15,75 L 30,75 L 15,90 Z" fill="black" /><path d="M 30,90 L 30,105 L 15,105 Z" fill="black" /><path d="M 30,105 L 30,120 L 15,120 Z" fill="black" /><path d="M 15,120 L 30,120 L 15,135 Z" fill="black" /><path d="M 30,135 L 30,150 L 15,135 Z" fill="black" /><path d="M 30,150 L 30,165 L 15,165 Z" fill="black" /><path d="M 15,165 L 30,165 L 15,180 Z" fill="black" /><path d="M 15,180 L 30,180 L 15,195 Z" fill="black" /><path d="M 30,195 L 30,210 L 15,195 Z" fill="black" /><path d="M 30,210 L 30,225 L 15,210 Z" fill="black" /><path d="M 15,225 L 30,225 L 15,240 Z" fill="black" /><path d="M 15,240 L 30,240 L 15,255 Z" fill="black" /><path d="M 30,255 L 30,270 L 15,270 Z" fill="black" /><path d="M 30,270 L 15,270 L 30,285 Z" fill="black" /><path d="M 30,285 L 30,300 L 15,300 Z" fill="black" /><path d="M 30,300 L 15,300 L 30,315 Z" fill="black" /><path d="M 30,315 L 30,330 L 15,330 Z" fill="black" /><path d="M 30,330 L 15,330 L 30,345 Z" fill="black" /><path d="M 30,345 L 30,360 L 15,360 Z" fill="black" /><path d="M 30,360 L 15,360 L 30,375 Z" fill="black" /><path d="M 30,375 L 30,390 L 15,390 Z" fill="black" /><path d="M 15,390 L 30,390 L 15,405 Z" fill="black" /><path d="M 30,405 L 30,420 L 15,420 Z" fill="black" /><path d="M 15,420 L 30,420 L 15,435 Z" fill="black" /><path d="M 30,435 L 30,450 L 15,435 Z" fill="black" /><path d="M 30,450 L 15,450 L 30,465 Z" fill="black" /><path d="M 30,465 L 30,480 L 15,480 Z" fill="black" /><path d="M 45,0 L 45,15 L 30,15 Z" fill="black" /><path d="M 45,15 L 30,15 L 45,30 Z" fill="black" /><path d="M 30,30 L 45,30 L 30,45 Z" fill="black" /><path d="M 45,45 L 45,60 L 30,45 Z" fill="black" /><path d="M 45,60 L 30,60 L 45,75 Z" fill="black" /><path d="M 45,75 L 30,75 L 45,90 Z" fill="black" /><path d="M 30,90 L 45,90 L 30,105 Z" fill="black" /><path d="M 45,105 L 45,120 L 30,120 Z" fill="black" /><path d="M 30,120 L 45,120 L 30,135 Z" fill="black" /><path d="M 45,135 L 30,135 L 45,150 Z" fill="black" /><path d="M 45,150 L 45,165 L 30,165 Z" fill="black" /><path d="M 45,165 L 45,180 L 30,165 Z" fill="black" /><path d="M 45,180 L 45,195 L 30,195 Z" fill="black" /><path d="M 30,195 L 45,195 L 30,210 Z" fill="black" /><path d="M 30,210 L 45,210 L 30,225 Z" fill="black" /><path d="M 45,225 L 45,240 L 30,240 Z" fill="black" /><path d="M 30,240 L 45,240 L 30,255 Z" fill="black" /><path d="M 45,255 L 45,270 L 30,270 Z" fill="black" /><path d="M 45,270 L 45,285 L 30,285 Z" fill="black" /><path d="M 45,285 L 30,285 L 45,300 Z" fill="black" /><path d="M 45,300 L 45,315 L 30,300 Z" fill="black" /><path d="M 45,315 L 45,330 L 30,330 Z" fill="black" /><path d="M 30,330 L 45,330 L 30,345 Z" fill="black" /><path d="M 45,345 L 45,360 L 30,345 Z" fill="black" /><path d="M 45,360 L 45,375 L 30,375 Z" fill="black" /><path d="M 30,375 L 45,375 L 30,390 Z" fill="black" /><path d="M 45,390 L 30,390 L 45,405 Z" fill="black" /><path d="M 30,405 L 45,405 L 30,420 Z" fill="black" /><path d="M 30,420 L 45,420 L 30,435 Z" fill="black" /><path d="M 45,435 L 45,450 L 30,450 Z" fill="black" /><path d="M 30,450 L 45,450 L 30,465 Z" fill="black" /><path d="M 45,465 L 45,480 L 30,480 Z" fill="black" /><path d="M 60,0 L 45,0 L 60,15 Z" fill="black" /><path d="M 60,15 L 60,30 L 45,30 Z" fill="black" /><path d="M 60,30 L 60,45 L 45,45 Z" fill="black" /><path d="M 45,45 L 60,45 L 45,60 Z" fill="black" /><path d="M 60,60 L 60,75 L 45,75 Z" fill="black" /><path d="M 45,75 L 60,75 L 45,90 Z" fill="black" /><path d="M 60,90 L 60,105 L 45,105 Z" fill="black" /><path d="M 45,105 L 60,105 L 45,120 Z" fill="black" /><path d="M 45,120 L 60,120 L 45,135 Z" fill="black" /><path d="M 60,135 L 45,135 L 60,150 Z" fill="black" /><path d="M 60,150 L 45,150 L 60,165 Z" fill="black" /><path d="M 45,165 L 60,165 L 45,180 Z" fill="black" /><path d="M 60,180 L 45,180 L 60,195 Z" fill="black" /><path d="M 60,195 L 60,210 L 45,210 Z" fill="black" /><path d="M 60,210 L 60,225 L 45,225 Z" fill="black" /><path d="M 60,225 L 45,225 L 60,240 Z" fill="black" /><path d="M 60,240 L 60,255 L 45,255 Z" fill="black" /><path d="M 60,255 L 45,255 L 60,270 Z" fill="black" /><path d="M 45,270 L 60,270 L 45,285 Z" fill="black" /><path d="M 60,285 L 45,285 L 60,300 Z" fill="black" /><path d="M 60,300 L 60,315 L 45,300 Z" fill="black" /><path d="M 45,315 L 60,315 L 45,330 Z" fill="black" /><path d="M 60,330 L 45,330 L 60,345 Z" fill="black" /><path d="M 60,345 L 60,360 L 45,360 Z" fill="black" /><path d="M 60,360 L 60,375 L 45,375 Z" fill="black" /><path d="M 60,375 L 60,390 L 45,390 Z" fill="black" /><path d="M 45,390 L 60,390 L 45,405 Z" fill="black" /><path d="M 60,405 L 60,420 L 45,420 Z" fill="black" /><path d="M 60,420 L 60,435 L 45,435 Z" fill="black" /><path d="M 60,435 L 60,450 L 45,450 Z" fill="black" /><path d="M 60,450 L 60,465 L 45,465 Z" fill="black" /><path d="M 60,465 L 45,465 L 60,480 Z" fill="black" /><path d="M 60,0 L 75,0 L 60,15 Z" fill="black" /><path d="M 75,15 L 60,15 L 75,30 Z" fill="black" /><path d="M 75,30 L 75,45 L 60,45 Z" fill="black" /><path d="M 75,45 L 75,60 L 60,60 Z" fill="black" /><path d="M 75,60 L 75,75 L 60,75 Z" fill="black" /><path d="M 75,75 L 75,90 L 60,90 Z" fill="black" /><path d="M 60,90 L 75,90 L 60,105 Z" fill="black" /><path d="M 75,105 L 75,120 L 60,120 Z" fill="black" /><path d="M 60,120 L 75,120 L 60,135 Z" fill="black" /><path d="M 75,135 L 75,150 L 60,150 Z" fill="black" /><path d="M 60,150 L 75,150 L 60,165 Z" fill="black" /><path d="M 75,165 L 75,180 L 60,165 Z" fill="black" /><path d="M 60,180 L 75,180 L 60,195 Z" fill="black" /><path d="M 60,195 L 75,195 L 60,210 Z" fill="black" /><path d="M 60,210 L 75,210 L 60,225 Z" fill="black" /><path d="M 60,225 L 75,225 L 60,240 Z" fill="black" /><path d="M 75,240 L 75,255 L 60,240 Z" fill="black" /><path d="M 75,255 L 75,270 L 60,255 Z" fill="black" /><path d="M 75,270 L 75,285 L 60,285 Z" fill="black" /><path d="M 75,285 L 75,300 L 60,285 Z" fill="black" /><path d="M 75,300 L 75,315 L 60,315 Z" fill="black" /><path d="M 60,315 L 75,315 L 60,330 Z" fill="black" /><path d="M 75,330 L 75,345 L 60,345 Z" fill="black" /><path d="M 75,345 L 75,360 L 60,360 Z" fill="black" /><path d="M 75,360 L 75,375 L 60,375 Z" fill="black" /><path d="M 75,375 L 75,390 L 60,390 Z" fill="black" /><path d="M 75,390 L 75,405 L 60,405 Z" fill="black" /><path d="M 75,405 L 75,420 L 60,420 Z" fill="black" /><path d="M 75,420 L 75,435 L 60,435 Z" fill="black" /><path d="M 75,435 L 75,450 L 60,435 Z" fill="black" /><path d="M 75,450 L 60,450 L 75,465 Z" fill="black" /><path d="M 60,465 L 75,465 L 60,480 Z" fill="black" /><path d="M 75,0 L 90,0 L 75,15 Z" fill="black" /><path d="M 90,15 L 90,30 L 75,30 Z" fill="black" /><path d="M 90,30 L 75,30 L 90,45 Z" fill="black" /><path d="M 90,45 L 75,45 L 90,60 Z" fill="black" /><path d="M 75,60 L 90,60 L 75,75 Z" fill="black" /><path d="M 90,75 L 75,75 L 90,90 Z" fill="black" /><path d="M 90,90 L 90,105 L 75,105 Z" fill="black" /><path d="M 90,105 L 90,120 L 75,120 Z" fill="black" /><path d="M 75,120 L 90,120 L 75,135 Z" fill="black" /><path d="M 75,135 L 90,135 L 75,150 Z" fill="black" /><path d="M 90,150 L 75,150 L 90,165 Z" fill="black" /><path d="M 90,165 L 90,180 L 75,165 Z" fill="black" /><path d="M 90,180 L 90,195 L 75,195 Z" fill="black" /><path d="M 90,195 L 75,195 L 90,210 Z" fill="black" /><path d="M 90,210 L 90,225 L 75,225 Z" fill="black" /><path d="M 90,225 L 90,240 L 75,240 Z" fill="black" /><path d="M 90,240 L 90,255 L 75,255 Z" fill="black" /><path d="M 90,255 L 75,255 L 90,270 Z" fill="black" /><path d="M 90,270 L 90,285 L 75,285 Z" fill="black" /><path d="M 75,285 L 90,285 L 75,300 Z" fill="black" /><path d="M 90,300 L 90,315 L 75,315 Z" fill="black" /><path d="M 90,315 L 75,315 L 90,330 Z" fill="black" /><path d="M 75,330 L 90,330 L 75,345 Z" fill="black" /><path d="M 90,345 L 90,360 L 75,345 Z" fill="black" /><path d="M 90,360 L 90,375 L 75,375 Z" fill="black" /><path d="M 90,375 L 90,390 L 75,390 Z" fill="black" /><path d="M 75,390 L 90,390 L 75,405 Z" fill="black" /><path d="M 90,405 L 90,420 L 75,420 Z" fill="black" /><path d="M 90,420 L 90,435 L 75,435 Z" fill="black" /><path d="M 90,435 L 90,450 L 75,450 Z" fill="black" /><path d="M 75,450 L 90,450 L 75,465 Z" fill="black" /><path d="M 90,465 L 90,480 L 75,480 Z" fill="black" /><path d="M 105,0 L 105,15 L 90,15 Z" fill="black" /><path d="M 105,15 L 105,30 L 90,30 Z" fill="black" /><path d="M 105,30 L 105,45 L 90,30 Z" fill="black" /><path d="M 90,45 L 105,45 L 90,60 Z" fill="black" /><path d="M 90,60 L 105,60 L 90,75 Z" fill="black" /><path d="M 90,75 L 105,75 L 90,90 Z" fill="black" /><path d="M 105,90 L 90,90 L 105,105 Z" fill="black" /><path d="M 90,105 L 105,105 L 90,120 Z" fill="black" /><path d="M 105,120 L 90,120 L 105,135 Z" fill="black" /><path d="M 105,135 L 105,150 L 90,150 Z" fill="black" /><path d="M 90,150 L 105,150 L 90,165 Z" fill="black" /><path d="M 90,165 L 105,165 L 90,180 Z" fill="black" /><path d="M 105,180 L 90,180 L 105,195 Z" fill="black" /><path d="M 105,195 L 105,210 L 90,210 Z" fill="black" /><path d="M 90,210 L 105,210 L 90,225 Z" fill="black" /><path d="M 105,225 L 105,240 L 90,240 Z" fill="black" /><path d="M 105,240 L 105,255 L 90,240 Z" fill="black" /><path d="M 105,255 L 105,270 L 90,270 Z" fill="black" /><path d="M 90,270 L 105,270 L 90,285 Z" fill="black" /><path d="M 90,285 L 105,285 L 90,300 Z" fill="black" /><path d="M 105,300 L 105,315 L 90,315 Z" fill="black" /><path d="M 90,315 L 105,315 L 90,330 Z" fill="black" /><path d="M 105,330 L 105,345 L 90,330 Z" fill="black" /><path d="M 90,345 L 105,345 L 90,360 Z" fill="black" /><path d="M 90,360 L 105,360 L 90,375 Z" fill="black" /><path d="M 90,375 L 105,375 L 90,390 Z" fill="black" /><path d="M 90,390 L 105,390 L 90,405 Z" fill="black" /><path d="M 105,405 L 105,420 L 90,420 Z" fill="black" /><path d="M 105,420 L 90,420 L 105,435 Z" fill="black" /><path d="M 105,435 L 105,450 L 90,435 Z" fill="black" /><path d="M 105,450 L 90,450 L 105,465 Z" fill="black" /><path d="M 90,465 L 105,465 L 90,480 Z" fill="black" /><path d="M 105,0 L 120,0 L 105,15 Z" fill="black" /><path d="M 120,15 L 105,15 L 120,30 Z" fill="black" /><path d="M 120,30 L 120,45 L 105,30 Z" fill="black" /><path d="M 120,45 L 120,60 L 105,60 Z" fill="black" /><path d="M 120,60 L 120,75 L 105,75 Z" fill="black" /><path d="M 120,75 L 120,90 L 105,90 Z" fill="black" /><path d="M 120,90 L 120,105 L 105,105 Z" fill="black" /><path d="M 105,105 L 120,105 L 105,120 Z" fill="black" /><path d="M 120,120 L 105,120 L 120,135 Z" fill="black" /><path d="M 105,135 L 120,135 L 105,150 Z" fill="black" /><path d="M 105,150 L 120,150 L 105,165 Z" fill="black" /><path d="M 120,165 L 105,165 L 120,180 Z" fill="black" /><path d="M 105,180 L 120,180 L 105,195 Z" fill="black" /><path d="M 120,195 L 120,210 L 105,210 Z" fill="black" /><path d="M 120,210 L 120,225 L 105,210 Z" fill="black" /><path d="M 105,225 L 120,225 L 105,240 Z" fill="black" /><path d="M 105,240 L 120,240 L 105,255 Z" fill="black" /><path d="M 120,255 L 105,255 L 120,270 Z" fill="black" /><path d="M 120,270 L 120,285 L 105,285 Z" fill="black" /><path d="M 120,285 L 120,300 L 105,300 Z" fill="black" /><path d="M 120,300 L 105,300 L 120,315 Z" fill="black" /><path d="M 105,315 L 120,315 L 105,330 Z" fill="black" /><path d="M 105,330 L 120,330 L 105,345 Z" fill="black" /><path d="M 120,345 L 120,360 L 105,360 Z" fill="black" /><path d="M 120,360 L 120,375 L 105,360 Z" fill="black" /><path d="M 105,375 L 120,375 L 105,390 Z" fill="black" /><path d="M 120,390 L 120,405 L 105,405 Z" fill="black" /><path d="M 105,405 L 120,405 L 105,420 Z" fill="black" /><path d="M 120,420 L 120,435 L 105,435 Z" fill="black" /><path d="M 105,435 L 120,435 L 105,450 Z" fill="black" /><path d="M 120,450 L 120,465 L 105,465 Z" fill="black" /><path d="M 105,465 L 120,465 L 105,480 Z" fill="black" /><path d="M 135,0 L 135,15 L 120,15 Z" fill="black" /><path d="M 135,15 L 135,30 L 120,30 Z" fill="black" /><path d="M 120,30 L 135,30 L 120,45 Z" fill="black" /><path d="M 120,45 L 135,45 L 120,60 Z" fill="black" /><path d="M 135,60 L 135,75 L 120,75 Z" fill="black" /><path d="M 135,75 L 135,90 L 120,90 Z" fill="black" /><path d="M 135,90 L 120,90 L 135,105 Z" fill="black" /><path d="M 135,105 L 135,120 L 120,120 Z" fill="black" /><path d="M 120,120 L 135,120 L 120,135 Z" fill="black" /><path d="M 120,135 L 135,135 L 120,150 Z" fill="black" /><path d="M 120,150 L 135,150 L 120,165 Z" fill="black" /><path d="M 135,165 L 120,165 L 135,180 Z" fill="black" /><path d="M 135,180 L 135,195 L 120,195 Z" fill="black" /><path d="M 135,195 L 135,210 L 120,210 Z" fill="black" /><path d="M 120,210 L 135,210 L 120,225 Z" fill="black" /><path d="M 135,225 L 135,240 L 120,240 Z" fill="black" /><path d="M 120,240 L 135,240 L 120,255 Z" fill="black" /><path d="M 120,255 L 135,255 L 120,270 Z" fill="black" /><path d="M 135,270 L 135,285 L 120,270 Z" fill="black" /><path d="M 135,285 L 135,300 L 120,300 Z" fill="black" /><path d="M 120,300 L 135,300 L 120,315 Z" fill="black" /><path d="M 135,315 L 135,330 L 120,315 Z" fill="black" /><path d="M 120,330 L 135,330 L 120,345 Z" fill="black" /><path d="M 135,345 L 135,360 L 120,360 Z" fill="black" /><path d="M 135,360 L 135,375 L 120,360 Z" fill="black" /><path d="M 135,375 L 135,390 L 120,375 Z" fill="black" /><path d="M 135,390 L 135,405 L 120,405 Z" fill="black" /><path d="M 135,405 L 135,420 L 120,420 Z" fill="black" /><path d="M 135,420 L 135,435 L 120,435 Z" fill="black" /><path d="M 135,435 L 135,450 L 120,435 Z" fill="black" /><path d="M 135,450 L 135,465 L 120,465 Z" fill="black" /><path d="M 135,465 L 120,465 L 135,480 Z" fill="black" /><path d="M 150,0 L 150,15 L 135,15 Z" fill="black" /><path d="M 150,15 L 150,30 L 135,30 Z" fill="black" /><path d="M 150,30 L 150,45 L 135,45 Z" fill="black" /><path d="M 135,45 L 150,45 L 135,60 Z" fill="black" /><path d="M 135,60 L 150,60 L 135,75 Z" fill="black" /><path d="M 150,75 L 150,90 L 135,90 Z" fill="black" /><path d="M 135,90 L 150,90 L 135,105 Z" fill="black" /><path d="M 135,105 L 150,105 L 135,120 Z" fill="black" /><path d="M 150,120 L 150,135 L 135,135 Z" fill="black" /><path d="M 150,135 L 150,150 L 135,150 Z" fill="black" /><path d="M 150,150 L 150,165 L 135,165 Z" fill="black" /><path d="M 135,165 L 150,165 L 135,180 Z" fill="black" /><path d="M 150,180 L 150,195 L 135,195 Z" fill="black" /><path d="M 135,195 L 150,195 L 135,210 Z" fill="black" /><path d="M 150,210 L 150,225 L 135,225 Z" fill="black" /><path d="M 150,225 L 150,240 L 135,240 Z" fill="black" /><path d="M 150,240 L 135,240 L 150,255 Z" fill="black" /><path d="M 150,255 L 150,270 L 135,270 Z" fill="black" /><path d="M 150,270 L 150,285 L 135,270 Z" fill="black" /><path d="M 135,285 L 150,285 L 135,300 Z" fill="black" /><path d="M 150,300 L 135,300 L 150,315 Z" fill="black" /><path d="M 150,315 L 150,330 L 135,330 Z" fill="black" /><path d="M 135,330 L 150,330 L 135,345 Z" fill="black" /><path d="M 135,345 L 150,345 L 135,360 Z" fill="black" /><path d="M 135,360 L 150,360 L 135,375 Z" fill="black" /><path d="M 150,375 L 150,390 L 135,375 Z" fill="black" /><path d="M 150,390 L 150,405 L 135,390 Z" fill="black" /><path d="M 150,405 L 150,420 L 135,420 Z" fill="black" /><path d="M 150,420 L 150,435 L 135,420 Z" fill="black" /><path d="M 150,435 L 150,450 L 135,450 Z" fill="black" /><path d="M 150,450 L 150,465 L 135,465 Z" fill="black" /><path d="M 150,465 L 150,480 L 135,480 Z" fill="black" /><path d="M 150,0 L 165,0 L 150,15 Z" fill="black" /><path d="M 150,15 L 165,15 L 150,30 Z" fill="black" /><path d="M 150,30 L 165,30 L 150,45 Z" fill="black" /><path d="M 150,45 L 165,45 L 150,60 Z" fill="black" /><path d="M 150,60 L 165,60 L 150,75 Z" fill="black" /><path d="M 165,75 L 165,90 L 150,90 Z" fill="black" /><path d="M 165,90 L 165,105 L 150,105 Z" fill="black" /><path d="M 150,105 L 165,105 L 150,120 Z" fill="black" /><path d="M 165,120 L 150,120 L 165,135 Z" fill="black" /><path d="M 165,135 L 150,135 L 165,150 Z" fill="black" /><path d="M 150,150 L 165,150 L 150,165 Z" fill="black" /><path d="M 150,165 L 165,165 L 150,180 Z" fill="black" /><path d="M 165,180 L 165,195 L 150,195 Z" fill="black" /><path d="M 165,195 L 165,210 L 150,210 Z" fill="black" /><path d="M 165,210 L 165,225 L 150,225 Z" fill="black" /><path d="M 150,225 L 165,225 L 150,240 Z" fill="black" /><path d="M 150,240 L 165,240 L 150,255 Z" fill="black" /><path d="M 165,255 L 165,270 L 150,255 Z" fill="black" /><path d="M 150,270 L 165,270 L 150,285 Z" fill="black" /><path d="M 165,285 L 165,300 L 150,300 Z" fill="black" /><path d="M 165,300 L 165,315 L 150,300 Z" fill="black" /><path d="M 165,315 L 165,330 L 150,315 Z" fill="black" /><path d="M 165,330 L 165,345 L 150,330 Z" fill="black" /><path d="M 165,345 L 165,360 L 150,345 Z" fill="black" /><path d="M 165,360 L 150,360 L 165,375 Z" fill="black" /><path d="M 150,375 L 165,375 L 150,390 Z" fill="black" /><path d="M 165,390 L 165,405 L 150,405 Z" fill="black" /><path d="M 165,405 L 165,420 L 150,420 Z" fill="black" /><path d="M 165,420 L 150,420 L 165,435 Z" fill="black" /><path d="M 165,435 L 165,450 L 150,435 Z" fill="black" /><path d="M 165,450 L 165,465 L 150,465 Z" fill="black" /><path d="M 150,465 L 165,465 L 150,480 Z" fill="black" /><path d="M 180,0 L 180,15 L 165,15 Z" fill="black" /><path d="M 165,15 L 180,15 L 165,30 Z" fill="black" /><path d="M 165,30 L 180,30 L 165,45 Z" fill="black" /><path d="M 180,45 L 180,60 L 165,45 Z" fill="black" /><path d="M 165,60 L 180,60 L 165,75 Z" fill="black" /><path d="M 180,75 L 180,90 L 165,90 Z" fill="black" /><path d="M 180,90 L 180,105 L 165,105 Z" fill="black" /><path d="M 180,105 L 180,120 L 165,120 Z" fill="black" /><path d="M 180,120 L 165,120 L 180,135 Z" fill="black" /><path d="M 180,135 L 165,135 L 180,150 Z" fill="black" /><path d="M 180,150 L 180,165 L 165,150 Z" fill="black" /><path d="M 180,165 L 180,180 L 165,180 Z" fill="black" /><path d="M 180,180 L 180,195 L 165,180 Z" fill="black" /><path d="M 180,195 L 165,195 L 180,210 Z" fill="black" /><path d="M 180,210 L 165,210 L 180,225 Z" fill="black" /><path d="M 180,225 L 180,240 L 165,225 Z" fill="black" /><path d="M 180,240 L 180,255 L 165,240 Z" fill="black" /><path d="M 165,255 L 180,255 L 165,270 Z" fill="black" /><path d="M 165,270 L 180,270 L 165,285 Z" fill="black" /><path d="M 165,285 L 180,285 L 165,300 Z" fill="black" /><path d="M 180,300 L 180,315 L 165,300 Z" fill="black" /><path d="M 180,315 L 165,315 L 180,330 Z" fill="black" /><path d="M 165,330 L 180,330 L 165,345 Z" fill="black" /><path d="M 165,345 L 180,345 L 165,360 Z" fill="black" /><path d="M 165,360 L 180,360 L 165,375 Z" fill="black" /><path d="M 165,375 L 180,375 L 165,390 Z" fill="black" /><path d="M 165,390 L 180,390 L 165,405 Z" fill="black" /><path d="M 165,405 L 180,405 L 165,420 Z" fill="black" /><path d="M 180,420 L 165,420 L 180,435 Z" fill="black" /><path d="M 180,435 L 180,450 L 165,450 Z" fill="black" /><path d="M 165,450 L 180,450 L 165,465 Z" fill="black" /><path d="M 165,465 L 180,465 L 165,480 Z" fill="black" /><path d="M 195,0 L 195,15 L 180,15 Z" fill="black" /><path d="M 195,15 L 195,30 L 180,15 Z" fill="black" /><path d="M 180,30 L 195,30 L 180,45 Z" fill="black" /><path d="M 195,45 L 195,60 L 180,60 Z" fill="black" /><path d="M 195,60 L 195,75 L 180,75 Z" fill="black" /><path d="M 195,75 L 195,90 L 180,90 Z" fill="black" /><path d="M 180,90 L 195,90 L 180,105 Z" fill="black" /><path d="M 180,105 L 195,105 L 180,120 Z" fill="black" /><path d="M 195,120 L 195,135 L 180,135 Z" fill="black" /><path d="M 195,135 L 195,150 L 180,135 Z" fill="black" /><path d="M 180,150 L 195,150 L 180,165 Z" fill="black" /><path d="M 195,165 L 195,180 L 180,165 Z" fill="black" /><path d="M 195,180 L 195,195 L 180,195 Z" fill="black" /><path d="M 195,195 L 195,210 L 180,195 Z" fill="black" /><path d="M 195,210 L 180,210 L 195,225 Z" fill="black" /><path d="M 180,225 L 195,225 L 180,240 Z" fill="black" /><path d="M 195,240 L 195,255 L 180,255 Z" fill="black" /><path d="M 195,255 L 180,255 L 195,270 Z" fill="black" /><path d="M 180,270 L 195,270 L 180,285 Z" fill="black" /><path d="M 195,285 L 195,300 L 180,300 Z" fill="black" /><path d="M 180,300 L 195,300 L 180,315 Z" fill="black" /><path d="M 180,315 L 195,315 L 180,330 Z" fill="black" /><path d="M 180,330 L 195,330 L 180,345 Z" fill="black" /><path d="M 195,345 L 195,360 L 180,360 Z" fill="black" /><path d="M 195,360 L 180,360 L 195,375 Z" fill="black" /><path d="M 195,375 L 195,390 L 180,390 Z" fill="black" /><path d="M 195,390 L 195,405 L 180,405 Z" fill="black" /><path d="M 180,405 L 195,405 L 180,420 Z" fill="black" /><path d="M 195,420 L 195,435 L 180,435 Z" fill="black" /><path d="M 180,435 L 195,435 L 180,450 Z" fill="black" /><path d="M 195,450 L 195,465 L 180,465 Z" fill="black" /><path d="M 180,465 L 195,465 L 180,480 Z" fill="black" /><path d="M 195,0 L 210,0 L 195,15 Z" fill="black" /><path d="M 195,15 L 210,15 L 195,30 Z" fill="black" /><path d="M 210,30 L 210,45 L 195,45 Z" fill="black" /><path d="M 195,45 L 210,45 L 195,60 Z" fill="black" /><path d="M 210,60 L 210,75 L 195,75 Z" fill="black" /><path d="M 195,75 L 210,75 L 195,90 Z" fill="black" /><path d="M 210,90 L 210,105 L 195,90 Z" fill="black" /><path d="M 195,105 L 210,105 L 195,120 Z" fill="black" /><path d="M 195,120 L 210,120 L 195,135 Z" fill="black" /><path d="M 210,135 L 210,150 L 195,150 Z" fill="black" /><path d="M 210,150 L 195,150 L 210,165 Z" fill="black" /><path d="M 210,165 L 195,165 L 210,180 Z" fill="black" /><path d="M 210,180 L 195,180 L 210,195 Z" fill="black" /><path d="M 210,195 L 195,195 L 210,210 Z" fill="black" /><path d="M 210,210 L 210,225 L 195,225 Z" fill="black" /><path d="M 210,225 L 210,240 L 195,240 Z" fill="black" /><path d="M 210,240 L 210,255 L 195,255 Z" fill="black" /><path d="M 210,255 L 210,270 L 195,270 Z" fill="black" /><path d="M 210,270 L 195,270 L 210,285 Z" fill="black" /><path d="M 210,285 L 210,300 L 195,300 Z" fill="black" /><path d="M 210,300 L 195,300 L 210,315 Z" fill="black" /><path d="M 210,315 L 195,315 L 210,330 Z" fill="black" /><path d="M 210,330 L 195,330 L 210,345 Z" fill="black" /><path d="M 210,345 L 210,360 L 195,345 Z" fill="black" /><path d="M 195,360 L 210,360 L 195,375 Z" fill="black" /><path d="M 195,375 L 210,375 L 195,390 Z" fill="black" /><path d="M 210,390 L 210,405 L 195,405 Z" fill="black" /><path d="M 195,405 L 210,405 L 195,420 Z" fill="black" /><path d="M 210,420 L 210,435 L 195,420 Z" fill="black" /><path d="M 210,435 L 210,450 L 195,450 Z" fill="black" /><path d="M 195,450 L 210,450 L 195,465 Z" fill="black" /><path d="M 210,465 L 210,480 L 195,480 Z" fill="black" /><path d="M 225,0 L 225,15 L 210,15 Z" fill="black" /><path d="M 225,15 L 210,15 L 225,30 Z" fill="black" /><path d="M 225,30 L 225,45 L 210,45 Z" fill="black" /><path d="M 210,45 L 225,45 L 210,60 Z" fill="black" /><path d="M 225,60 L 210,60 L 225,75 Z" fill="black" /><path d="M 225,75 L 225,90 L 210,90 Z" fill="black" /><path d="M 225,90 L 225,105 L 210,105 Z" fill="black" /><path d="M 225,105 L 210,105 L 225,120 Z" fill="black" /><path d="M 225,120 L 225,135 L 210,135 Z" fill="black" /><path d="M 210,135 L 225,135 L 210,150 Z" fill="black" /><path d="M 225,150 L 225,165 L 210,150 Z" fill="black" /><path d="M 225,165 L 210,165 L 225,180 Z" fill="black" /><path d="M 225,180 L 225,195 L 210,195 Z" fill="black" /><path d="M 225,195 L 225,210 L 210,210 Z" fill="black" /><path d="M 210,210 L 225,210 L 210,225 Z" fill="black" /><path d="M 210,225 L 225,225 L 210,240 Z" fill="black" /><path d="M 210,240 L 225,240 L 210,255 Z" fill="black" /><path d="M 210,255 L 225,255 L 210,270 Z" fill="black" /><path d="M 225,270 L 210,270 L 225,285 Z" fill="black" /><path d="M 225,285 L 210,285 L 225,300 Z" fill="black" /><path d="M 210,300 L 225,300 L 210,315 Z" fill="black" /><path d="M 225,315 L 225,330 L 210,315 Z" fill="black" /><path d="M 210,330 L 225,330 L 210,345 Z" fill="black" /><path d="M 210,345 L 225,345 L 210,360 Z" fill="black" /><path d="M 210,360 L 225,360 L 210,375 Z" fill="black" /><path d="M 210,375 L 225,375 L 210,390 Z" fill="black" /><path d="M 210,390 L 225,390 L 210,405 Z" fill="black" /><path d="M 210,405 L 225,405 L 210,420 Z" fill="black" /><path d="M 210,420 L 225,420 L 210,435 Z" fill="black" /><path d="M 225,435 L 225,450 L 210,450 Z" fill="black" /><path d="M 210,450 L 225,450 L 210,465 Z" fill="black" /><path d="M 225,465 L 225,480 L 210,480 Z" fill="black" /><path d="M 240,0 L 240,15 L 225,15 Z" fill="black" /><path d="M 240,15 L 240,30 L 225,30 Z" fill="black" /><path d="M 240,30 L 240,45 L 225,30 Z" fill="black" /><path d="M 240,45 L 240,60 L 225,60 Z" fill="black" /><path d="M 225,60 L 240,60 L 225,75 Z" fill="black" /><path d="M 225,75 L 240,75 L 225,90 Z" fill="black" /><path d="M 240,90 L 240,105 L 225,105 Z" fill="black" /><path d="M 240,105 L 225,105 L 240,120 Z" fill="black" /><path d="M 225,120 L 240,120 L 225,135 Z" fill="black" /><path d="M 240,135 L 240,150 L 225,150 Z" fill="black" /><path d="M 225,150 L 240,150 L 225,165 Z" fill="black" /><path d="M 225,165 L 240,165 L 225,180 Z" fill="black" /><path d="M 240,180 L 240,195 L 225,195 Z" fill="black" /><path d="M 240,195 L 240,210 L 225,210 Z" fill="black" /><path d="M 240,210 L 240,225 L 225,225 Z" fill="black" /><path d="M 225,225 L 240,225 L 225,240 Z" fill="black" /><path d="M 240,240 L 240,255 L 225,240 Z" fill="black" /><path d="M 240,255 L 240,270 L 225,270 Z" fill="black" /><path d="M 240,270 L 240,285 L 225,285 Z" fill="black" /><path d="M 225,285 L 240,285 L 225,300 Z" fill="black" /><path d="M 225,300 L 240,300 L 225,315 Z" fill="black" /><path d="M 225,315 L 240,315 L 225,330 Z" fill="black" /><path d="M 240,330 L 240,345 L 225,345 Z" fill="black" /><path d="M 240,345 L 225,345 L 240,360 Z" fill="black" /><path d="M 240,360 L 240,375 L 225,375 Z" fill="black" /><path d="M 225,375 L 240,375 L 225,390 Z" fill="black" /><path d="M 240,390 L 240,405 L 225,405 Z" fill="black" /><path d="M 240,405 L 225,405 L 240,420 Z" fill="black" /><path d="M 240,420 L 225,420 L 240,435 Z" fill="black" /><path d="M 240,435 L 240,450 L 225,435 Z" fill="black" /><path d="M 225,450 L 240,450 L 225,465 Z" fill="black" /><path d="M 240,465 L 240,480 L 225,465 Z" fill="black" /><path d="M 255,0 L 255,15 L 240,15 Z" fill="black" /><path d="M 255,15 L 255,30 L 240,30 Z" fill="black" /><path d="M 255,30 L 240,30 L 255,45 Z" fill="black" /><path d="M 240,45 L 255,45 L 240,60 Z" fill="black" /><path d="M 255,60 L 240,60 L 255,75 Z" fill="black" /><path d="M 240,75 L 255,75 L 240,90 Z" fill="black" /><path d="M 255,90 L 255,105 L 240,105 Z" fill="black" /><path d="M 240,105 L 255,105 L 240,120 Z" fill="black" /><path d="M 240,120 L 255,120 L 240,135 Z" fill="black" /><path d="M 240,135 L 255,135 L 240,150 Z" fill="black" /><path d="M 255,150 L 240,150 L 255,165 Z" fill="black" /><path d="M 255,165 L 240,165 L 255,180 Z" fill="black" /><path d="M 255,180 L 240,180 L 255,195 Z" fill="black" /><path d="M 255,195 L 255,210 L 240,210 Z" fill="black" /><path d="M 255,210 L 240,210 L 255,225 Z" fill="black" /><path d="M 240,225 L 255,225 L 240,240 Z" fill="black" /><path d="M 240,240 L 255,240 L 240,255 Z" fill="black" /><path d="M 240,255 L 255,255 L 240,270 Z" fill="black" /><path d="M 240,270 L 255,270 L 240,285 Z" fill="black" /><path d="M 240,285 L 255,285 L 240,300 Z" fill="black" /><path d="M 255,300 L 255,315 L 240,315 Z" fill="black" /><path d="M 240,315 L 255,315 L 240,330 Z" fill="black" /><path d="M 255,330 L 255,345 L 240,330 Z" fill="black" /><path d="M 255,345 L 255,360 L 240,360 Z" fill="black" /><path d="M 255,360 L 255,375 L 240,375 Z" fill="black" /><path d="M 255,375 L 255,390 L 240,375 Z" fill="black" /><path d="M 240,390 L 255,390 L 240,405 Z" fill="black" /><path d="M 255,405 L 255,420 L 240,405 Z" fill="black" /><path d="M 255,420 L 255,435 L 240,435 Z" fill="black" /><path d="M 255,435 L 240,435 L 255,450 Z" fill="black" /><path d="M 240,450 L 255,450 L 240,465 Z" fill="black" /><path d="M 255,465 L 255,480 L 240,480 Z" fill="black" /><path d="M 270,0 L 270,15 L 255,0 Z" fill="black" /><path d="M 255,15 L 270,15 L 255,30 Z" fill="black" /><path d="M 255,30 L 270,30 L 255,45 Z" fill="black" /><path d="M 270,45 L 270,60 L 255,60 Z" fill="black" /><path d="M 255,60 L 270,60 L 255,75 Z" fill="black" /><path d="M 270,75 L 270,90 L 255,90 Z" fill="black" /><path d="M 270,90 L 270,105 L 255,105 Z" fill="black" /><path d="M 270,105 L 270,120 L 255,105 Z" fill="black" /><path d="M 270,120 L 270,135 L 255,135 Z" fill="black" /><path d="M 255,135 L 270,135 L 255,150 Z" fill="black" /><path d="M 270,150 L 270,165 L 255,165 Z" fill="black" /><path d="M 255,165 L 270,165 L 255,180 Z" fill="black" /><path d="M 255,180 L 270,180 L 255,195 Z" fill="black" /><path d="M 255,195 L 270,195 L 255,210 Z" fill="black" /><path d="M 270,210 L 270,225 L 255,225 Z" fill="black" /><path d="M 270,225 L 270,240 L 255,240 Z" fill="black" /><path d="M 270,240 L 255,240 L 270,255 Z" fill="black" /><path d="M 255,255 L 270,255 L 255,270 Z" fill="black" /><path d="M 270,270 L 270,285 L 255,270 Z" fill="black" /><path d="M 255,285 L 270,285 L 255,300 Z" fill="black" /><path d="M 270,300 L 270,315 L 255,315 Z" fill="black" /><path d="M 255,315 L 270,315 L 255,330 Z" fill="black" /><path d="M 270,330 L 270,345 L 255,345 Z" fill="black" /><path d="M 270,345 L 270,360 L 255,345 Z" fill="black" /><path d="M 270,360 L 270,375 L 255,375 Z" fill="black" /><path d="M 270,375 L 270,390 L 255,390 Z" fill="black" /><path d="M 270,390 L 270,405 L 255,405 Z" fill="black" /><path d="M 270,405 L 270,420 L 255,405 Z" fill="black" /><path d="M 270,420 L 270,435 L 255,435 Z" fill="black" /><path d="M 255,435 L 270,435 L 255,450 Z" fill="black" /><path d="M 270,450 L 270,465 L 255,450 Z" fill="black" /><path d="M 270,465 L 255,465 L 270,480 Z" fill="black" /><path d="M 285,0 L 285,15 L 270,15 Z" fill="black" /><path d="M 270,15 L 285,15 L 270,30 Z" fill="black" /><path d="M 285,30 L 270,30 L 285,45 Z" fill="black" /><path d="M 270,45 L 285,45 L 270,60 Z" fill="black" /><path d="M 270,60 L 285,60 L 270,75 Z" fill="black" /><path d="M 270,75 L 285,75 L 270,90 Z" fill="black" /><path d="M 285,90 L 285,105 L 270,90 Z" fill="black" /><path d="M 285,105 L 285,120 L 270,120 Z" fill="black" /><path d="M 270,120 L 285,120 L 270,135 Z" fill="black" /><path d="M 285,135 L 285,150 L 270,150 Z" fill="black" /><path d="M 285,150 L 285,165 L 270,165 Z" fill="black" /><path d="M 270,165 L 285,165 L 270,180 Z" fill="black" /><path d="M 270,180 L 285,180 L 270,195 Z" fill="black" /><path d="M 285,195 L 285,210 L 270,210 Z" fill="black" /><path d="M 285,210 L 285,225 L 270,225 Z" fill="black" /><path d="M 285,225 L 285,240 L 270,240 Z" fill="black" /><path d="M 285,240 L 285,255 L 270,255 Z" fill="black" /><path d="M 285,255 L 285,270 L 270,255 Z" fill="black" /><path d="M 270,270 L 285,270 L 270,285 Z" fill="black" /><path d="M 285,285 L 285,300 L 270,300 Z" fill="black" /><path d="M 285,300 L 270,300 L 285,315 Z" fill="black" /><path d="M 285,315 L 285,330 L 270,330 Z" fill="black" /><path d="M 270,330 L 285,330 L 270,345 Z" fill="black" /><path d="M 285,345 L 270,345 L 285,360 Z" fill="black" /><path d="M 285,360 L 270,360 L 285,375 Z" fill="black" /><path d="M 285,375 L 270,375 L 285,390 Z" fill="black" /><path d="M 270,390 L 285,390 L 270,405 Z" fill="black" /><path d="M 285,405 L 285,420 L 270,420 Z" fill="black" /><path d="M 270,420 L 285,420 L 270,435 Z" fill="black" /><path d="M 285,435 L 285,450 L 270,435 Z" fill="black" /><path d="M 285,450 L 285,465 L 270,465 Z" fill="black" /><path d="M 285,465 L 285,480 L 270,480 Z" fill="black" /><path d="M 300,0 L 300,15 L 285,15 Z" fill="black" /><path d="M 300,15 L 300,30 L 285,30 Z" fill="black" /><path d="M 300,30 L 285,30 L 300,45 Z" fill="black" /><path d="M 300,45 L 300,60 L 285,60 Z" fill="black" /><path d="M 300,60 L 300,75 L 285,60 Z" fill="black" /><path d="M 300,75 L 285,75 L 300,90 Z" fill="black" /><path d="M 300,90 L 285,90 L 300,105 Z" fill="black" /><path d="M 300,105 L 300,120 L 285,120 Z" fill="black" /><path d="M 300,120 L 300,135 L 285,120 Z" fill="black" /><path d="M 300,135 L 300,150 L 285,150 Z" fill="black" /><path d="M 285,150 L 300,150 L 285,165 Z" fill="black" /><path d="M 300,165 L 300,180 L 285,180 Z" fill="black" /><path d="M 300,180 L 300,195 L 285,180 Z" fill="black" /><path d="M 300,195 L 285,195 L 300,210 Z" fill="black" /><path d="M 285,210 L 300,210 L 285,225 Z" fill="black" /><path d="M 300,225 L 300,240 L 285,240 Z" fill="black" /><path d="M 300,240 L 300,255 L 285,240 Z" fill="black" /><path d="M 300,255 L 300,270 L 285,270 Z" fill="black" /><path d="M 285,270 L 300,270 L 285,285 Z" fill="black" /><path d="M 300,285 L 300,300 L 285,300 Z" fill="black" /><path d="M 285,300 L 300,300 L 285,315 Z" fill="black" /><path d="M 300,315 L 300,330 L 285,315 Z" fill="black" /><path d="M 300,330 L 300,345 L 285,345 Z" fill="black" /><path d="M 300,345 L 285,345 L 300,360 Z" fill="black" /><path d="M 285,360 L 300,360 L 285,375 Z" fill="black" /><path d="M 300,375 L 300,390 L 285,390 Z" fill="black" /><path d="M 300,390 L 300,405 L 285,405 Z" fill="black" /><path d="M 285,405 L 300,405 L 285,420 Z" fill="black" /><path d="M 300,420 L 300,435 L 285,435 Z" fill="black" /><path d="M 300,435 L 300,450 L 285,450 Z" fill="black" /><path d="M 300,450 L 300,465 L 285,465 Z" fill="black" /><path d="M 300,465 L 285,465 L 300,480 Z" fill="black" /><path d="M 300,0 L 315,0 L 300,15 Z" fill="black" /><path d="M 300,15 L 315,15 L 300,30 Z" fill="black" /><path d="M 300,30 L 315,30 L 300,45 Z" fill="black" /><path d="M 315,45 L 315,60 L 300,60 Z" fill="black" /><path d="M 300,60 L 315,60 L 300,75 Z" fill="black" /><path d="M 300,75 L 315,75 L 300,90 Z" fill="black" /><path d="M 315,90 L 315,105 L 300,90 Z" fill="black" /><path d="M 300,105 L 315,105 L 300,120 Z" fill="black" /><path d="M 315,120 L 315,135 L 300,135 Z" fill="black" /><path d="M 315,135 L 315,150 L 300,150 Z" fill="black" /><path d="M 315,150 L 315,165 L 300,150 Z" fill="black" /><path d="M 315,165 L 315,180 L 300,180 Z" fill="black" /><path d="M 300,180 L 315,180 L 300,195 Z" fill="black" /><path d="M 300,195 L 315,195 L 300,210 Z" fill="black" /><path d="M 315,210 L 300,210 L 315,225 Z" fill="black" /><path d="M 315,225 L 315,240 L 300,240 Z" fill="black" /><path d="M 315,240 L 315,255 L 300,255 Z" fill="black" /><path d="M 315,255 L 300,255 L 315,270 Z" fill="black" /><path d="M 315,270 L 315,285 L 300,285 Z" fill="black" /><path d="M 315,285 L 315,300 L 300,300 Z" fill="black" /><path d="M 300,300 L 315,300 L 300,315 Z" fill="black" /><path d="M 300,315 L 315,315 L 300,330 Z" fill="black" /><path d="M 315,330 L 300,330 L 315,345 Z" fill="black" /><path d="M 300,345 L 315,345 L 300,360 Z" fill="black" /><path d="M 315,360 L 315,375 L 300,375 Z" fill="black" /><path d="M 315,375 L 315,390 L 300,375 Z" fill="black" /><path d="M 315,390 L 315,405 L 300,405 Z" fill="black" /><path d="M 315,405 L 315,420 L 300,420 Z" fill="black" /><path d="M 315,420 L 315,435 L 300,435 Z" fill="black" /><path d="M 315,435 L 315,450 L 300,450 Z" fill="black" /><path d="M 300,450 L 315,450 L 300,465 Z" fill="black" /><path d="M 315,465 L 315,480 L 300,480 Z" fill="black" /><path d="M 330,0 L 330,15 L 315,15 Z" fill="black" /><path d="M 330,15 L 330,30 L 315,30 Z" fill="black" /><path d="M 330,30 L 315,30 L 330,45 Z" fill="black" /><path d="M 330,45 L 315,45 L 330,60 Z" fill="black" /><path d="M 330,60 L 330,75 L 315,60 Z" fill="black" /><path d="M 330,75 L 330,90 L 315,90 Z" fill="black" /><path d="M 330,90 L 330,105 L 315,105 Z" fill="black" /><path d="M 315,105 L 330,105 L 315,120 Z" fill="black" /><path d="M 330,120 L 330,135 L 315,135 Z" fill="black" /><path d="M 315,135 L 330,135 L 315,150 Z" fill="black" /><path d="M 330,150 L 330,165 L 315,165 Z" fill="black" /><path d="M 330,165 L 330,180 L 315,180 Z" fill="black" /><path d="M 315,180 L 330,180 L 315,195 Z" fill="black" /><path d="M 330,195 L 330,210 L 315,210 Z" fill="black" /><path d="M 315,210 L 330,210 L 315,225 Z" fill="black" /><path d="M 330,225 L 330,240 L 315,240 Z" fill="black" /><path d="M 315,240 L 330,240 L 315,255 Z" fill="black" /><path d="M 330,255 L 330,270 L 315,270 Z" fill="black" /><path d="M 330,270 L 330,285 L 315,285 Z" fill="black" /><path d="M 315,285 L 330,285 L 315,300 Z" fill="black" /><path d="M 315,300 L 330,300 L 315,315 Z" fill="black" /><path d="M 330,315 L 315,315 L 330,330 Z" fill="black" /><path d="M 330,330 L 330,345 L 315,330 Z" fill="black" /><path d="M 330,345 L 330,360 L 315,360 Z" fill="black" /><path d="M 330,360 L 330,375 L 315,375 Z" fill="black" /><path d="M 315,375 L 330,375 L 315,390 Z" fill="black" /><path d="M 315,390 L 330,390 L 315,405 Z" fill="black" /><path d="M 315,405 L 330,405 L 315,420 Z" fill="black" /><path d="M 330,420 L 315,420 L 330,435 Z" fill="black" /><path d="M 315,435 L 330,435 L 315,450 Z" fill="black" /><path d="M 330,450 L 315,450 L 330,465 Z" fill="black" /><path d="M 315,465 L 330,465 L 315,480 Z" fill="black" /><path d="M 345,0 L 345,15 L 330,15 Z" fill="black" /><path d="M 330,15 L 345,15 L 330,30 Z" fill="black" /><path d="M 345,30 L 345,45 L 330,30 Z" fill="black" /><path d="M 330,45 L 345,45 L 330,60 Z" fill="black" /><path d="M 345,60 L 345,75 L 330,75 Z" fill="black" /><path d="M 345,75 L 345,90 L 330,90 Z" fill="black" /><path d="M 345,90 L 345,105 L 330,105 Z" fill="black" /><path d="M 345,105 L 345,120 L 330,105 Z" fill="black" /><path d="M 330,120 L 345,120 L 330,135 Z" fill="black" /><path d="M 345,135 L 345,150 L 330,135 Z" fill="black" /><path d="M 345,150 L 330,150 L 345,165 Z" fill="black" /><path d="M 330,165 L 345,165 L 330,180 Z" fill="black" /><path d="M 345,180 L 345,195 L 330,195 Z" fill="black" /><path d="M 345,195 L 330,195 L 345,210 Z" fill="black" /><path d="M 330,210 L 345,210 L 330,225 Z" fill="black" /><path d="M 345,225 L 345,240 L 330,240 Z" fill="black" /><path d="M 330,240 L 345,240 L 330,255 Z" fill="black" /><path d="M 345,255 L 345,270 L 330,255 Z" fill="black" /><path d="M 345,270 L 330,270 L 345,285 Z" fill="black" /><path d="M 345,285 L 345,300 L 330,285 Z" fill="black" /><path d="M 345,300 L 345,315 L 330,315 Z" fill="black" /><path d="M 345,315 L 330,315 L 345,330 Z" fill="black" /><path d="M 345,330 L 345,345 L 330,345 Z" fill="black" /><path d="M 345,345 L 345,360 L 330,345 Z" fill="black" /><path d="M 330,360 L 345,360 L 330,375 Z" fill="black" /><path d="M 345,375 L 345,390 L 330,390 Z" fill="black" /><path d="M 345,390 L 345,405 L 330,390 Z" fill="black" /><path d="M 330,405 L 345,405 L 330,420 Z" fill="black" /><path d="M 345,420 L 345,435 L 330,435 Z" fill="black" /><path d="M 345,435 L 345,450 L 330,450 Z" fill="black" /><path d="M 330,450 L 345,450 L 330,465 Z" fill="black" /><path d="M 330,465 L 345,465 L 330,480 Z" fill="black" /><path d="M 345,0 L 360,0 L 345,15 Z" fill="black" /><path d="M 360,15 L 360,30 L 345,30 Z" fill="black" /><path d="M 345,30 L 360,30 L 345,45 Z" fill="black" /><path d="M 360,45 L 360,60 L 345,45 Z" fill="black" /><path d="M 360,60 L 360,75 L 345,75 Z" fill="black" /><path d="M 345,75 L 360,75 L 345,90 Z" fill="black" /><path d="M 360,90 L 345,90 L 360,105 Z" fill="black" /><path d="M 360,105 L 360,120 L 345,120 Z" fill="black" /><path d="M 360,120 L 345,120 L 360,135 Z" fill="black" /><path d="M 345,135 L 360,135 L 345,150 Z" fill="black" /><path d="M 360,150 L 360,165 L 345,165 Z" fill="black" /><path d="M 360,165 L 345,165 L 360,180 Z" fill="black" /><path d="M 360,180 L 360,195 L 345,195 Z" fill="black" /><path d="M 345,195 L 360,195 L 345,210 Z" fill="black" /><path d="M 360,210 L 360,225 L 345,225 Z" fill="black" /><path d="M 345,225 L 360,225 L 345,240 Z" fill="black" /><path d="M 360,240 L 360,255 L 345,255 Z" fill="black" /><path d="M 345,255 L 360,255 L 345,270 Z" fill="black" /><path d="M 345,270 L 360,270 L 345,285 Z" fill="black" /><path d="M 360,285 L 345,285 L 360,300 Z" fill="black" /><path d="M 360,300 L 360,315 L 345,315 Z" fill="black" /><path d="M 345,315 L 360,315 L 345,330 Z" fill="black" /><path d="M 360,330 L 360,345 L 345,330 Z" fill="black" /><path d="M 360,345 L 360,360 L 345,360 Z" fill="black" /><path d="M 360,360 L 360,375 L 345,375 Z" fill="black" /><path d="M 360,375 L 360,390 L 345,390 Z" fill="black" /><path d="M 360,390 L 345,390 L 360,405 Z" fill="black" /><path d="M 360,405 L 360,420 L 345,405 Z" fill="black" /><path d="M 360,420 L 360,435 L 345,435 Z" fill="black" /><path d="M 345,435 L 360,435 L 345,450 Z" fill="black" /><path d="M 360,450 L 360,465 L 345,465 Z" fill="black" /><path d="M 345,465 L 360,465 L 345,480 Z" fill="black" /><path d="M 360,0 L 375,0 L 360,15 Z" fill="black" /><path d="M 375,15 L 360,15 L 375,30 Z" fill="black" /><path d="M 375,30 L 375,45 L 360,45 Z" fill="black" /><path d="M 375,45 L 375,60 L 360,60 Z" fill="black" /><path d="M 375,60 L 375,75 L 360,75 Z" fill="black" /><path d="M 375,75 L 375,90 L 360,90 Z" fill="black" /><path d="M 360,90 L 375,90 L 360,105 Z" fill="black" /><path d="M 375,105 L 375,120 L 360,120 Z" fill="black" /><path d="M 360,120 L 375,120 L 360,135 Z" fill="black" /><path d="M 375,135 L 360,135 L 375,150 Z" fill="black" /><path d="M 375,150 L 375,165 L 360,165 Z" fill="black" /><path d="M 360,165 L 375,165 L 360,180 Z" fill="black" /><path d="M 360,180 L 375,180 L 360,195 Z" fill="black" /><path d="M 360,195 L 375,195 L 360,210 Z" fill="black" /><path d="M 375,210 L 360,210 L 375,225 Z" fill="black" /><path d="M 360,225 L 375,225 L 360,240 Z" fill="black" /><path d="M 360,240 L 375,240 L 360,255 Z" fill="black" /><path d="M 375,255 L 375,270 L 360,270 Z" fill="black" /><path d="M 375,270 L 360,270 L 375,285 Z" fill="black" /><path d="M 375,285 L 360,285 L 375,300 Z" fill="black" /><path d="M 375,300 L 375,315 L 360,300 Z" fill="black" /><path d="M 360,315 L 375,315 L 360,330 Z" fill="black" /><path d="M 375,330 L 375,345 L 360,345 Z" fill="black" /><path d="M 375,345 L 375,360 L 360,360 Z" fill="black" /><path d="M 360,360 L 375,360 L 360,375 Z" fill="black" /><path d="M 375,375 L 375,390 L 360,375 Z" fill="black" /><path d="M 360,390 L 375,390 L 360,405 Z" fill="black" /><path d="M 375,405 L 360,405 L 375,420 Z" fill="black" /><path d="M 375,420 L 360,420 L 375,435 Z" fill="black" /><path d="M 375,435 L 375,450 L 360,450 Z" fill="black" /><path d="M 360,450 L 375,450 L 360,465 Z" fill="black" /><path d="M 360,465 L 375,465 L 360,480 Z" fill="black" /><path d="M 390,0 L 390,15 L 375,15 Z" fill="black" /><path d="M 390,15 L 390,30 L 375,30 Z" fill="black" /><path d="M 375,30 L 390,30 L 375,45 Z" fill="black" /><path d="M 375,45 L 390,45 L 375,60 Z" fill="black" /><path d="M 375,60 L 390,60 L 375,75 Z" fill="black" /><path d="M 390,75 L 390,90 L 375,90 Z" fill="black" /><path d="M 390,90 L 390,105 L 375,105 Z" fill="black" /><path d="M 375,105 L 390,105 L 375,120 Z" fill="black" /><path d="M 390,120 L 390,135 L 375,135 Z" fill="black" /><path d="M 390,135 L 390,150 L 375,135 Z" fill="black" /><path d="M 375,150 L 390,150 L 375,165 Z" fill="black" /><path d="M 375,165 L 390,165 L 375,180 Z" fill="black" /><path d="M 375,180 L 390,180 L 375,195 Z" fill="black" /><path d="M 390,195 L 390,210 L 375,210 Z" fill="black" /><path d="M 375,210 L 390,210 L 375,225 Z" fill="black" /><path d="M 390,225 L 375,225 L 390,240 Z" fill="black" /><path d="M 375,240 L 390,240 L 375,255 Z" fill="black" /><path d="M 375,255 L 390,255 L 375,270 Z" fill="black" /><path d="M 390,270 L 375,270 L 390,285 Z" fill="black" /><path d="M 375,285 L 390,285 L 375,300 Z" fill="black" /><path d="M 390,300 L 390,315 L 375,315 Z" fill="black" /><path d="M 390,315 L 375,315 L 390,330 Z" fill="black" /><path d="M 390,330 L 390,345 L 375,330 Z" fill="black" /><path d="M 390,345 L 390,360 L 375,360 Z" fill="black" /><path d="M 390,360 L 390,375 L 375,375 Z" fill="black" /><path d="M 390,375 L 390,390 L 375,375 Z" fill="black" /><path d="M 375,390 L 390,390 L 375,405 Z" fill="black" /><path d="M 375,405 L 390,405 L 375,420 Z" fill="black" /><path d="M 375,420 L 390,420 L 375,435 Z" fill="black" /><path d="M 390,435 L 390,450 L 375,450 Z" fill="black" /><path d="M 375,450 L 390,450 L 375,465 Z" fill="black" /><path d="M 375,465 L 390,465 L 375,480 Z" fill="black" /><path d="M 405,0 L 405,15 L 390,15 Z" fill="black" /><path d="M 405,15 L 405,30 L 390,30 Z" fill="black" /><path d="M 405,30 L 405,45 L 390,45 Z" fill="black" /><path d="M 405,45 L 390,45 L 405,60 Z" fill="black" /><path d="M 405,60 L 405,75 L 390,75 Z" fill="black" /><path d="M 405,75 L 405,90 L 390,90 Z" fill="black" /><path d="M 405,90 L 405,105 L 390,105 Z" fill="black" /><path d="M 390,105 L 405,105 L 390,120 Z" fill="black" /><path d="M 405,120 L 405,135 L 390,120 Z" fill="black" /><path d="M 390,135 L 405,135 L 390,150 Z" fill="black" /><path d="M 390,150 L 405,150 L 390,165 Z" fill="black" /><path d="M 405,165 L 390,165 L 405,180 Z" fill="black" /><path d="M 390,180 L 405,180 L 390,195 Z" fill="black" /><path d="M 390,195 L 405,195 L 390,210 Z" fill="black" /><path d="M 405,210 L 390,210 L 405,225 Z" fill="black" /><path d="M 390,225 L 405,225 L 390,240 Z" fill="black" /><path d="M 405,240 L 405,255 L 390,240 Z" fill="black" /><path d="M 405,255 L 405,270 L 390,270 Z" fill="black" /><path d="M 405,270 L 390,270 L 405,285 Z" fill="black" /><path d="M 390,285 L 405,285 L 390,300 Z" fill="black" /><path d="M 390,300 L 405,300 L 390,315 Z" fill="black" /><path d="M 405,315 L 405,330 L 390,330 Z" fill="black" /><path d="M 390,330 L 405,330 L 390,345 Z" fill="black" /><path d="M 405,345 L 405,360 L 390,345 Z" fill="black" /><path d="M 405,360 L 405,375 L 390,375 Z" fill="black" /><path d="M 405,375 L 405,390 L 390,390 Z" fill="black" /><path d="M 390,390 L 405,390 L 390,405 Z" fill="black" /><path d="M 390,405 L 405,405 L 390,420 Z" fill="black" /><path d="M 390,420 L 405,420 L 390,435 Z" fill="black" /><path d="M 405,435 L 405,450 L 390,450 Z" fill="black" /><path d="M 405,450 L 405,465 L 390,465 Z" fill="black" /><path d="M 390,465 L 405,465 L 390,480 Z" fill="black" /><path d="M 420,0 L 420,15 L 405,15 Z" fill="black" /><path d="M 420,15 L 420,30 L 405,30 Z" fill="black" /><path d="M 405,30 L 420,30 L 405,45 Z" fill="black" /><path d="M 405,45 L 420,45 L 405,60 Z" fill="black" /><path d="M 405,60 L 420,60 L 405,75 Z" fill="black" /><path d="M 405,75 L 420,75 L 405,90 Z" fill="black" /><path d="M 420,90 L 420,105 L 405,105 Z" fill="black" /><path d="M 420,105 L 405,105 L 420,120 Z" fill="black" /><path d="M 405,120 L 420,120 L 405,135 Z" fill="black" /><path d="M 420,135 L 420,150 L 405,150 Z" fill="black" /><path d="M 420,150 L 420,165 L 405,165 Z" fill="black" /><path d="M 405,165 L 420,165 L 405,180 Z" fill="black" /><path d="M 420,180 L 420,195 L 405,180 Z" fill="black" /><path d="M 420,195 L 420,210 L 405,195 Z" fill="black" /><path d="M 420,210 L 420,225 L 405,225 Z" fill="black" /><path d="M 420,225 L 405,225 L 420,240 Z" fill="black" /><path d="M 420,240 L 420,255 L 405,255 Z" fill="black" /><path d="M 420,255 L 420,270 L 405,270 Z" fill="black" /><path d="M 405,270 L 420,270 L 405,285 Z" fill="black" /><path d="M 420,285 L 420,300 L 405,300 Z" fill="black" /><path d="M 405,300 L 420,300 L 405,315 Z" fill="black" /><path d="M 420,315 L 420,330 L 405,315 Z" fill="black" /><path d="M 420,330 L 420,345 L 405,330 Z" fill="black" /><path d="M 420,345 L 420,360 L 405,360 Z" fill="black" /><path d="M 405,360 L 420,360 L 405,375 Z" fill="black" /><path d="M 420,375 L 405,375 L 420,390 Z" fill="black" /><path d="M 405,390 L 420,390 L 405,405 Z" fill="black" /><path d="M 420,405 L 420,420 L 405,420 Z" fill="black" /><path d="M 420,420 L 405,420 L 420,435 Z" fill="black" /><path d="M 420,435 L 420,450 L 405,450 Z" fill="black" /><path d="M 420,450 L 420,465 L 405,465 Z" fill="black" /><path d="M 405,465 L 420,465 L 405,480 Z" fill="black" /><path d="M 420,0 L 435,0 L 420,15 Z" fill="black" /><path d="M 435,15 L 435,30 L 420,30 Z" fill="black" /><path d="M 435,30 L 435,45 L 420,45 Z" fill="black" /><path d="M 435,45 L 420,45 L 435,60 Z" fill="black" /><path d="M 420,60 L 435,60 L 420,75 Z" fill="black" /><path d="M 435,75 L 420,75 L 435,90 Z" fill="black" /><path d="M 420,90 L 435,90 L 420,105 Z" fill="black" /><path d="M 435,105 L 435,120 L 420,120 Z" fill="black" /><path d="M 420,120 L 435,120 L 420,135 Z" fill="black" /><path d="M 420,135 L 435,135 L 420,150 Z" fill="black" /><path d="M 420,150 L 435,150 L 420,165 Z" fill="black" /><path d="M 420,165 L 435,165 L 420,180 Z" fill="black" /><path d="M 435,180 L 435,195 L 420,195 Z" fill="black" /><path d="M 420,195 L 435,195 L 420,210 Z" fill="black" /><path d="M 435,210 L 420,210 L 435,225 Z" fill="black" /><path d="M 420,225 L 435,225 L 420,240 Z" fill="black" /><path d="M 435,240 L 420,240 L 435,255 Z" fill="black" /><path d="M 435,255 L 420,255 L 435,270 Z" fill="black" /><path d="M 420,270 L 435,270 L 420,285 Z" fill="black" /><path d="M 420,285 L 435,285 L 420,300 Z" fill="black" /><path d="M 435,300 L 435,315 L 420,315 Z" fill="black" /><path d="M 420,315 L 435,315 L 420,330 Z" fill="black" /><path d="M 420,330 L 435,330 L 420,345 Z" fill="black" /><path d="M 420,345 L 435,345 L 420,360 Z" fill="black" /><path d="M 435,360 L 435,375 L 420,360 Z" fill="black" /><path d="M 420,375 L 435,375 L 420,390 Z" fill="black" /><path d="M 435,390 L 435,405 L 420,390 Z" fill="black" /><path d="M 435,405 L 435,420 L 420,420 Z" fill="black" /><path d="M 420,420 L 435,420 L 420,435 Z" fill="black" /><path d="M 435,435 L 435,450 L 420,450 Z" fill="black" /><path d="M 420,450 L 435,450 L 420,465 Z" fill="black" /><path d="M 435,465 L 420,465 L 435,480 Z" fill="black" /><path d="M 450,0 L 450,15 L 435,15 Z" fill="black" /><path d="M 435,15 L 450,15 L 435,30 Z" fill="black" /><path d="M 450,30 L 450,45 L 435,45 Z" fill="black" /><path d="M 435,45 L 450,45 L 435,60 Z" fill="black" /><path d="M 450,60 L 450,75 L 435,75 Z" fill="black" /><path d="M 435,75 L 450,75 L 435,90 Z" fill="black" /><path d="M 450,90 L 450,105 L 435,105 Z" fill="black" /><path d="M 435,105 L 450,105 L 435,120 Z" fill="black" /><path d="M 450,120 L 450,135 L 435,120 Z" fill="black" /><path d="M 435,135 L 450,135 L 435,150 Z" fill="black" /><path d="M 435,150 L 450,150 L 435,165 Z" fill="black" /><path d="M 450,165 L 435,165 L 450,180 Z" fill="black" /><path d="M 450,180 L 435,180 L 450,195 Z" fill="black" /><path d="M 450,195 L 450,210 L 435,210 Z" fill="black" /><path d="M 450,210 L 450,225 L 435,225 Z" fill="black" /><path d="M 450,225 L 450,240 L 435,240 Z" fill="black" /><path d="M 450,240 L 450,255 L 435,255 Z" fill="black" /><path d="M 435,255 L 450,255 L 435,270 Z" fill="black" /><path d="M 435,270 L 450,270 L 435,285 Z" fill="black" /><path d="M 450,285 L 450,300 L 435,285 Z" fill="black" /><path d="M 450,300 L 450,315 L 435,315 Z" fill="black" /><path d="M 435,315 L 450,315 L 435,330 Z" fill="black" /><path d="M 450,330 L 450,345 L 435,330 Z" fill="black" /><path d="M 450,345 L 450,360 L 435,360 Z" fill="black" /><path d="M 450,360 L 450,375 L 435,375 Z" fill="black" /><path d="M 435,375 L 450,375 L 435,390 Z" fill="black" /><path d="M 435,390 L 450,390 L 435,405 Z" fill="black" /><path d="M 435,405 L 450,405 L 435,420 Z" fill="black" /><path d="M 435,420 L 450,420 L 435,435 Z" fill="black" /><path d="M 435,435 L 450,435 L 435,450 Z" fill="black" /><path d="M 450,450 L 450,465 L 435,465 Z" fill="black" /><path d="M 450,465 L 450,480 L 435,480 Z" fill="black" /><path d="M 450,0 L 465,0 L 450,15 Z" fill="black" /><path d="M 465,15 L 465,30 L 450,30 Z" fill="black" /><path d="M 450,30 L 465,30 L 450,45 Z" fill="black" /><path d="M 450,45 L 465,45 L 450,60 Z" fill="black" /><path d="M 465,60 L 450,60 L 465,75 Z" fill="black" /><path d="M 465,75 L 465,90 L 450,90 Z" fill="black" /><path d="M 465,90 L 450,90 L 465,105 Z" fill="black" /><path d="M 465,105 L 465,120 L 450,105 Z" fill="black" /><path d="M 465,120 L 465,135 L 450,135 Z" fill="black" /><path d="M 450,135 L 465,135 L 450,150 Z" fill="black" /><path d="M 465,150 L 465,165 L 450,150 Z" fill="black" /><path d="M 465,165 L 450,165 L 465,180 Z" fill="black" /><path d="M 465,180 L 465,195 L 450,195 Z" fill="black" /><path d="M 465,195 L 465,210 L 450,195 Z" fill="black" /><path d="M 450,210 L 465,210 L 450,225 Z" fill="black" /><path d="M 465,225 L 465,240 L 450,240 Z" fill="black" /><path d="M 450,240 L 465,240 L 450,255 Z" fill="black" /><path d="M 450,255 L 465,255 L 450,270 Z" fill="black" /><path d="M 465,270 L 465,285 L 450,270 Z" fill="black" /><path d="M 465,285 L 450,285 L 465,300 Z" fill="black" /><path d="M 465,300 L 465,315 L 450,315 Z" fill="black" /><path d="M 465,315 L 465,330 L 450,315 Z" fill="black" /><path d="M 465,330 L 450,330 L 465,345 Z" fill="black" /><path d="M 465,345 L 465,360 L 450,360 Z" fill="black" /><path d="M 465,360 L 450,360 L 465,375 Z" fill="black" /><path d="M 450,375 L 465,375 L 450,390 Z" fill="black" /><path d="M 465,390 L 450,390 L 465,405 Z" fill="black" /><path d="M 465,405 L 465,420 L 450,420 Z" fill="black" /><path d="M 465,420 L 465,435 L 450,420 Z" fill="black" /><path d="M 465,435 L 465,450 L 450,435 Z" fill="black" /><path d="M 465,450 L 465,465 L 450,465 Z" fill="black" /><path d="M 450,465 L 465,465 L 450,480 Z" fill="black" /><path d="M 480,0 L 480,15 L 465,0 Z" fill="black" /><path d="M 465,15 L 480,15 L 465,30 Z" fill="black" /><path d="M 480,30 L 465,30 L 480,45 Z" fill="black" /><path d="M 480,45 L 480,60 L 465,60 Z" fill="black" /><path d="M 465,60 L 480,60 L 465,75 Z" fill="black" /><path d="M 480,75 L 480,90 L 465,90 Z" fill="black" /><path d="M 465,90 L 480,90 L 465,105 Z" fill="black" /><path d="M 480,105 L 480,120 L 465,120 Z" fill="black" /><path d="M 480,120 L 480,135 L 465,135 Z" fill="black" /><path d="M 480,135 L 480,150 L 465,135 Z" fill="black" /><path d="M 480,150 L 480,165 L 465,150 Z" fill="black" /><path d="M 465,165 L 480,165 L 465,180 Z" fill="black" /><path d="M 480,180 L 480,195 L 465,195 Z" fill="black" /><path d="M 480,195 L 465,195 L 480,210 Z" fill="black" /><path d="M 480,210 L 480,225 L 465,225 Z" fill="black" /><path d="M 465,225 L 480,225 L 465,240 Z" fill="black" /><path d="M 480,240 L 480,255 L 465,255 Z" fill="black" /><path d="M 480,255 L 465,255 L 480,270 Z" fill="black" /><path d="M 465,270 L 480,270 L 465,285 Z" fill="black" /><path d="M 480,285 L 465,285 L 480,300 Z" fill="black" /><path d="M 465,300 L 480,300 L 465,315 Z" fill="black" /><path d="M 480,315 L 480,330 L 465,330 Z" fill="black" /><path d="M 480,330 L 480,345 L 465,345 Z" fill="black" /><path d="M 465,345 L 480,345 L 465,360 Z" fill="black" /><path d="M 480,360 L 480,375 L 465,375 Z" fill="black" /><path d="M 480,375 L 465,375 L 480,390 Z" fill="black" /><path d="M 480,390 L 480,405 L 465,390 Z" fill="black" /><path d="M 480,405 L 480,420 L 465,420 Z" fill="black" /><path d="M 465,420 L 480,420 L 465,435 Z" fill="black" /><path d="M 465,435 L 480,435 L 465,450 Z" fill="black" /><path d="M 480,450 L 480,465 L 465,465 Z" fill="black" /><path d="M 480,465 L 465,465 L 480,480 Z" fill="black" /></svg>