<?xml version="1.0" encoding="utf-8" ?>
<svg baseProfile="full" height="500" version="1.1" width="500" xmlns="http://www.w3.org/2000/svg" xmlns:ev="http://www.w3.org/2001/xml-events" xmlns:xlink="http://www.w3.org/1999/xlink"><defs /><path d="M 0,0 L 125,0 L 0,125 Z" fill="black" /><path d="M 125,125 L 125,250 L 0,250 Z" fill="black" /><path d="M 0,250 L 125,250 L 0,375 Z" fill="black" /><path d="M 125,375 L 125,500 L 0,500 Z" fill="black" /><path d="M 250,0 L 250,125 L 125,0 Z" fill="black" /><path d="M 125,125 L 250,125 L 125,250 Z" fill="black" /><path d="M 250,250 L 250,375 L 125,250 Z" fill="black" /><path d="M 125,375 L 250,375 L 125,500 Z" fill="black" /><path d="M 250,0 L 375,0 L 250,125 Z" fill="black" /><path d="M 375,125 L 375,250 L 250,125 Z" fill="black" /><path d="M 375,250 L 375,375 L 250,375 Z" fill="black" /><path d="M 375,375 L 250,375 L 375,500 Z" fill="black" /><path d="M 500,0 L 500,125 L 375,125 Z" fill="black" /><path d="M 500,125 L 500,250 L 375,250 Z" fill="black" /><path d="M 500,250 L 500,375 L 375,375 Z" fill="black" /><path d="M 500,375 L 500,500 L 375,500 Z" fill="black" /></svg>