<?xml version="1.0" encoding="utf-8" ?>
<svg baseProfile="full" height="500" version="1.1" width="500" xmlns="http://www.w3.org/2000/svg" xmlns:ev="http://www.w3.org/2001/xml-events" xmlns:xlink="http://www.w3.org/1999/xlink"><defs /><path d="M 0,0 L 31,0 L 0,31 Z" fill="teal" /><path d="M 31,31 L 0,31 L 31,62 Z" fill="blue" /><path d="M 31,62 L 31,93 L 0,62 Z" fill="blue" /><path d="M 31,93 L 31,124 L 0,93 Z" fill="teal" /><path d="M 31,124 L 31,155 L 0,124 Z" fill="orange" /><path d="M 31,155 L 31,186 L 0,155 Z" fill="green" /><path d="M 31,186 L 0,186 L 31,217 Z" fill="green" /><path d="M 31,217 L 31,248 L 0,248 Z" fill="green" /><path d="M 31,248 L 31,279 L 0,248 Z" fill="green" /><path d="M 31,279 L 31,310 L 0,310 Z" fill="orange" /><path d="M 31,310 L 31,341 L 0,310 Z" fill="teal" /><path d="M 31,341 L 31,372 L 0,372 Z" fill="green" /><path d="M 31,372 L 31,403 L 0,403 Z" fill="orange" /><path d="M 31,403 L 31,434 L 0,434 Z" fill="blue" /><path d="M 31,434 L 31,465 L 0,465 Z" fill="blue" /><path d="M 0,465 L 31,465 L 0,496 Z" fill="teal" /><path d="M 31,0 L 62,0 L 31,31 Z" fill="orange" /><path d="M 62,31 L 31,31 L 62,62 Z" fill="teal" /><path d="M 62,62 L 31,62 L 62,93 Z" fill="teal" /><path d="M 31,93 L 62,93 L 31,124 Z" fill="teal" /><path d="M 31,124 L 62,124 L 31,155 Z" fill="teal" /><path d="M 62,155 L 31,155 L 62,186 Z" fill="green" /><path d="M 62,186 L 62,217 L 31,217 Z" fill="orange" /><path d="M 62,217 L 31,217 L 62,248 Z" fill="green" /><path d="M 62,248 L 62,279 L 31,248 Z" fill="orange" /><path d="M 62,279 L 31,279 L 62,310 Z" fill="green" /><path d="M 62,310 L 62,341 L 31,341 Z" fill="orange" /><path d="M 62,341 L 62,372 L 31,372 Z" fill="blue" /><path d="M 62,372 L 31,372 L 62,403 Z" fill="blue" /><path d="M 31,403 L 62,403 L 31,434 Z" fill="green" /><path d="M 62,434 L 62,465 L 31,465 Z" fill="green" /><path d="M 62,465 L 62,496 L 31,465 Z" fill="green" /><path d="M 62,0 L 93,0 L 62,31 Z" fill="green" /><path d="M 93,31 L 62,31 L 93,62 Z" fill="orange" /><path d="M 93,62 L 93,93 L 62,93 Z" fill="orange" /><path d="M 93,93 L 93,124 L 62,124 Z" fill="green" /><path d="M 93,124 L 93,155 L 62,155 Z" fill="orange" /><path d="M 93,155 L 62,155 L 93,186 Z" fill="orange" /><path d="M 62,186 L 93,186 L 62,217 Z" fill="teal" /><path d="M 62,217 L 93,217 L 62,248 Z" fill="blue" /><path d="M 93,248 L 62,248 L 93,279 Z" fill="blue" /><path d="M 62,279 L 93,279 L 62,310 Z" fill="green" /><path d="M 93,310 L 93,341 L 62,341 Z" fill="orange" /><path d="M 62,341 L 93,341 L 62,372 Z" fill="blue" /><path d="M 93,372 L 93,403 L 62,403 Z" fill="blue" /><path d="M 93,403 L 93,434 L 62,403 Z" fill="teal" /><path d="M 93,434 L 93,465 L 62,465 Z" fill="orange" /><path d="M 93,465 L 93,496 L 62,496 Z" fill="teal" /><path d="M 93,0 L 124,0 L 93,31 Z" fill="teal" /><path d="M 124,31 L 124,62 L 93,31 Z" fill="blue" /><path d="M 93,62 L 124,62 L 93,93 Z" fill="orange" /><path d="M 93,93 L 124,93 L 93,124 Z" fill="orange" /><path d="M 93,124 L 124,124 L 93,155 Z" fill="orange" /><path d="M 124,155 L 124,186 L 93,186 Z" fill="green" /><path d="M 93,186 L 124,186 L 93,217 Z" fill="green" /><path d="M 124,217 L 124,248 L 93,248 Z" fill="blue" /><path d="M 124,248 L 124,279 L 93,279 Z" fill="teal" /><path d="M 124,279 L 124,310 L 93,310 Z" fill="green" /><path d="M 93,310 L 124,310 L 93,341 Z" fill="green" /><path d="M 124,341 L 124,372 L 93,372 Z" fill="teal" /><path d="M 124,372 L 124,403 L 93,372 Z" fill="green" /><path d="M 124,403 L 124,434 L 93,434 Z" fill="green" /><path d="M 93,434 L 124,434 L 93,465 Z" fill="green" /><path d="M 93,465 L 124,465 L 93,496 Z" fill="green" /><path d="M 124,0 L 155,0 L 124,31 Z" fill="teal" /><path d="M 155,31 L 155,62 L 124,31 Z" fill="blue" /><path d="M 155,62 L 155,93 L 124,62 Z" fill="green" /><path d="M 155,93 L 124,93 L 155,124 Z" fill="green" /><path d="M 155,124 L 155,155 L 124,155 Z" fill="blue" /><path d="M 124,155 L 155,155 L 124,186 Z" fill="teal" /><path d="M 124,186 L 155,186 L 124,217 Z" fill="orange" /><path d="M 124,217 L 155,217 L 124,248 Z" fill="orange" /><path d="M 155,248 L 124,248 L 155,279 Z" fill="orange" /><path d="M 155,279 L 155,310 L 124,310 Z" fill="orange" /><path d="M 155,310 L 155,341 L 124,341 Z" fill="teal" /><path d="M 155,341 L 155,372 L 124,372 Z" fill="blue" /><path d="M 155,372 L 155,403 L 124,403 Z" fill="teal" /><path d="M 155,403 L 155,434 L 124,434 Z" fill="teal" /><path d="M 124,434 L 155,434 L 124,465 Z" fill="teal" /><path d="M 155,465 L 155,496 L 124,465 Z" fill="blue" /><path d="M 186,0 L 186,31 L 155,31 Z" fill="blue" /><path d="M 155,31 L 186,31 L 155,62 Z" fill="blue" /><path d="M 186,62 L 186,93 L 155,62 Z" fill="teal" /><path d="M 186,93 L 155,93 L 186,124 Z" fill="orange" /><path d="M 155,124 L 186,124 L 155,155 Z" fill="blue" /><path d="M 186,155 L 186,186 L 155,155 Z" fill="green" /><path d="M 186,186 L 186,217 L 155,217 Z" fill="orange" /><path d="M 155,217 L 186,217 L 155,248 Z" fill="teal" /><path d="M 155,248 L 186,248 L 155,279 Z" fill="orange" /><path d="M 186,279 L 186,310 L 155,310 Z" fill="green" /><path d="M 155,310 L 186,310 L 155,341 Z" fill="blue" /><path d="M 186,341 L 186,372 L 155,372 Z" fill="green" /><path d="M 186,372 L 186,403 L 155,403 Z" fill="teal" /><path d="M 186,403 L 186,434 L 155,434 Z" fill="teal" /><path d="M 155,434 L 186,434 L 155,465 Z" fill="orange" /><path d="M 186,465 L 155,465 L 186,496 Z" fill="green" /><path d="M 217,0 L 217,31 L 186,31 Z" fill="orange" /><path d="M 186,31 L 217,31 L 186,62 Z" fill="blue" /><path d="M 217,62 L 217,93 L 186,62 Z" fill="green" /><path d="M 186,93 L 217,93 L 186,124 Z" fill="orange" /><path d="M 186,124 L 217,124 L 186,155 Z" fill="green" /><path d="M 217,155 L 217,186 L 186,186 Z" fill="orange" /><path d="M 217,186 L 217,217 L 186,217 Z" fill="green" /><path d="M 217,217 L 217,248 L 186,248 Z" fill="green" /><path d="M 217,248 L 186,248 L 217,279 Z" fill="green" /><path d="M 217,279 L 217,310 L 186,310 Z" fill="teal" /><path d="M 217,310 L 217,341 L 186,341 Z" fill="teal" /><path d="M 217,341 L 217,372 L 186,372 Z" fill="blue" /><path d="M 217,372 L 217,403 L 186,372 Z" fill="teal" /><path d="M 217,403 L 186,403 L 217,434 Z" fill="green" /><path d="M 217,434 L 217,465 L 186,434 Z" fill="teal" /><path d="M 217,465 L 217,496 L 186,465 Z" fill="orange" /><path d="M 248,0 L 248,31 L 217,31 Z" fill="green" /><path d="M 217,31 L 248,31 L 217,62 Z" fill="orange" /><path d="M 248,62 L 217,62 L 248,93 Z" fill="blue" /><path d="M 248,93 L 248,124 L 217,124 Z" fill="orange" /><path d="M 217,124 L 248,124 L 217,155 Z" fill="teal" /><path d="M 248,155 L 217,155 L 248,186 Z" fill="blue" /><path d="M 248,186 L 248,217 L 217,217 Z" fill="teal" /><path d="M 248,217 L 248,248 L 217,248 Z" fill="green" /><path d="M 248,248 L 248,279 L 217,248 Z" fill="blue" /><path d="M 248,279 L 248,310 L 217,310 Z" fill="teal" /><path d="M 248,310 L 248,341 L 217,310 Z" fill="orange" /><path d="M 248,341 L 248,372 L 217,372 Z" fill="teal" /><path d="M 217,372 L 248,372 L 217,403 Z" fill="blue" /><path d="M 217,403 L 248,403 L 217,434 Z" fill="blue" /><path d="M 248,434 L 217,434 L 248,465 Z" fill="orange" /><path d="M 217,465 L 248,465 L 217,496 Z" fill="green" /><path d="M 279,0 L 248,0 L 279,31 Z" fill="orange" /><path d="M 279,31 L 279,62 L 248,62 Z" fill="orange" /><path d="M 248,62 L 279,62 L 248,93 Z" fill="teal" /><path d="M 248,93 L 279,93 L 248,124 Z" fill="green" /><path d="M 279,124 L 248,124 L 279,155 Z" fill="orange" /><path d="M 279,155 L 279,186 L 248,186 Z" fill="blue" /><path d="M 279,186 L 279,217 L 248,186 Z" fill="blue" /><path d="M 279,217 L 279,248 L 248,248 Z" fill="blue" /><path d="M 248,248 L 279,248 L 248,279 Z" fill="teal" /><path d="M 248,279 L 279,279 L 248,310 Z" fill="blue" /><path d="M 248,310 L 279,310 L 248,341 Z" fill="blue" /><path d="M 279,341 L 279,372 L 248,372 Z" fill="teal" /><path d="M 248,372 L 279,372 L 248,403 Z" fill="green" /><path d="M 279,403 L 279,434 L 248,434 Z" fill="blue" /><path d="M 279,434 L 279,465 L 248,465 Z" fill="teal" /><path d="M 248,465 L 279,465 L 248,496 Z" fill="orange" /><path d="M 279,0 L 310,0 L 279,31 Z" fill="teal" /><path d="M 310,31 L 310,62 L 279,31 Z" fill="green" /><path d="M 310,62 L 310,93 L 279,93 Z" fill="green" /><path d="M 310,93 L 279,93 L 310,124 Z" fill="orange" /><path d="M 310,124 L 310,155 L 279,155 Z" fill="teal" /><path d="M 310,155 L 310,186 L 279,186 Z" fill="teal" /><path d="M 310,186 L 310,217 L 279,217 Z" fill="teal" /><path d="M 310,217 L 310,248 L 279,248 Z" fill="green" /><path d="M 310,248 L 310,279 L 279,279 Z" fill="teal" /><path d="M 279,279 L 310,279 L 279,310 Z" fill="green" /><path d="M 279,310 L 310,310 L 279,341 Z" fill="green" /><path d="M 279,341 L 310,341 L 279,372 Z" fill="orange" /><path d="M 310,372 L 310,403 L 279,403 Z" fill="blue" /><path d="M 279,403 L 310,403 L 279,434 Z" fill="green" /><path d="M 279,434 L 310,434 L 279,465 Z" fill="teal" /><path d="M 310,465 L 279,465 L 310,496 Z" fill="green" /><path d="M 310,0 L 341,0 L 310,31 Z" fill="teal" /><path d="M 310,31 L 341,31 L 310,62 Z" fill="blue" /><path d="M 341,62 L 341,93 L 310,93 Z" fill="green" /><path d="M 341,93 L 341,124 L 310,124 Z" fill="blue" /><path d="M 310,124 L 341,124 L 310,155 Z" fill="orange" /><path d="M 310,155 L 341,155 L 310,186 Z" fill="teal" /><path d="M 310,186 L 341,186 L 310,217 Z" fill="teal" /><path d="M 310,217 L 341,217 L 310,248 Z" fill="orange" /><path d="M 341,248 L 341,279 L 310,279 Z" fill="orange" /><path d="M 310,279 L 341,279 L 310,310 Z" fill="teal" /><path d="M 341,310 L 341,341 L 310,341 Z" fill="orange" /><path d="M 310,341 L 341,341 L 310,372 Z" fill="orange" /><path d="M 310,372 L 341,372 L 310,403 Z" fill="green" /><path d="M 341,403 L 310,403 L 341,434 Z" fill="orange" /><path d="M 310,434 L 341,434 L 310,465 Z" fill="orange" /><path d="M 341,465 L 341,496 L 310,496 Z" fill="teal" /><path d="M 341,0 L 372,0 L 341,31 Z" fill="teal" /><path d="M 372,31 L 341,31 L 372,62 Z" fill="green" /><path d="M 372,62 L 372,93 L 341,93 Z" fill="orange" /><path d="M 341,93 L 372,93 L 341,124 Z" fill="orange" /><path d="M 341,124 L 372,124 L 341,155 Z" fill="orange" /><path d="M 341,155 L 372,155 L 341,186 Z" fill="orange" /><path d="M 341,186 L 372,186 L 341,217 Z" fill="teal" /><path d="M 341,217 L 372,217 L 341,248 Z" fill="teal" /><path d="M 341,248 L 372,248 L 341,279 Z" fill="teal" /><path d="M 372,279 L 372,310 L 341,279 Z" fill="orange" /><path d="M 341,310 L 372,310 L 341,341 Z" fill="teal" /><path d="M 372,341 L 372,372 L 341,372 Z" fill="teal" /><path d="M 372,372 L 341,372 L 372,403 Z" fill="green" /><path d="M 341,403 L 372,403 L 341,434 Z" fill="green" /><path d="M 372,434 L 372,465 L 341,465 Z" fill="orange" /><path d="M 372,465 L 372,496 L 341,496 Z" fill="green" /><path d="M 403,0 L 403,31 L 372,0 Z" fill="blue" /><path d="M 372,31 L 403,31 L 372,62 Z" fill="green" /><path d="M 372,62 L 403,62 L 372,93 Z" fill="orange" /><path d="M 372,93 L 403,93 L 372,124 Z" fill="blue" /><path d="M 403,124 L 403,155 L 372,155 Z" fill="teal" /><path d="M 403,155 L 403,186 L 372,186 Z" fill="blue" /><path d="M 372,186 L 403,186 L 372,217 Z" fill="teal" /><path d="M 403,217 L 403,248 L 372,217 Z" fill="blue" /><path d="M 403,248 L 403,279 L 372,279 Z" fill="blue" /><path d="M 403,279 L 403,310 L 372,310 Z" fill="teal" /><path d="M 372,310 L 403,310 L 372,341 Z" fill="orange" /><path d="M 403,341 L 372,341 L 403,372 Z" fill="orange" /><path d="M 403,372 L 403,403 L 372,403 Z" fill="green" /><path d="M 403,403 L 372,403 L 403,434 Z" fill="orange" /><path d="M 403,434 L 403,465 L 372,465 Z" fill="blue" /><path d="M 403,465 L 403,496 L 372,496 Z" fill="green" /><path d="M 403,0 L 434,0 L 403,31 Z" fill="orange" /><path d="M 434,31 L 434,62 L 403,62 Z" fill="orange" /><path d="M 434,62 L 434,93 L 403,93 Z" fill="teal" /><path d="M 403,93 L 434,93 L 403,124 Z" fill="orange" /><path d="M 434,124 L 434,155 L 403,124 Z" fill="blue" /><path d="M 434,155 L 434,186 L 403,186 Z" fill="orange" /><path d="M 434,186 L 434,217 L 403,217 Z" fill="orange" /><path d="M 403,217 L 434,217 L 403,248 Z" fill="orange" /><path d="M 434,248 L 434,279 L 403,248 Z" fill="blue" /><path d="M 403,279 L 434,279 L 403,310 Z" fill="green" /><path d="M 434,310 L 403,310 L 434,341 Z" fill="orange" /><path d="M 403,341 L 434,341 L 403,372 Z" fill="teal" /><path d="M 434,372 L 434,403 L 403,403 Z" fill="teal" /><path d="M 403,403 L 434,403 L 403,434 Z" fill="teal" /><path d="M 434,434 L 434,465 L 403,434 Z" fill="orange" /><path d="M 403,465 L 434,465 L 403,496 Z" fill="blue" /><path d="M 465,0 L 465,31 L 434,31 Z" fill="orange" /><path d="M 434,31 L 465,31 L 434,62 Z" fill="blue" /><path d="M 434,62 L 465,62 L 434,93 Z" fill="teal" /><path d="M 465,93 L 465,124 L 434,124 Z" fill="teal" /><path d="M 434,124 L 465,124 L 434,155 Z" fill="teal" /><path d="M 465,155 L 465,186 L 434,186 Z" fill="teal" /><path d="M 434,186 L 465,186 L 434,217 Z" fill="blue" /><path d="M 434,217 L 465,217 L 434,248 Z" fill="teal" /><path d="M 465,248 L 465,279 L 434,279 Z" fill="teal" /><path d="M 465,279 L 434,279 L 465,310 Z" fill="blue" /><path d="M 465,310 L 465,341 L 434,341 Z" fill="orange" /><path d="M 434,341 L 465,341 L 434,372 Z" fill="orange" /><path d="M 465,372 L 465,403 L 434,403 Z" fill="blue" /><path d="M 434,403 L 465,403 L 434,434 Z" fill="green" /><path d="M 434,434 L 465,434 L 434,465 Z" fill="orange" /><path d="M 434,465 L 465,465 L 434,496 Z" fill="blue" /><path d="M 465,0 L 496,0 L 465,31 Z" fill="teal" /><path d="M 496,31 L 496,62 L 465,62 Z" fill="orange" /><path d="M 496,62 L 496,93 L 465,62 Z" fill="blue" /><path d="M 496,93 L 496,124 L 465,124 Z" fill="green" /><path d="M 465,124 L 496,124 L 465,155 Z" fill="orange" /><path d="M 465,155 L 496,155 L 465,186 Z" fill="orange" /><path d="M 496,186 L 496,217 L 465,217 Z" fill="blue" /><path d="M 496,217 L 496,248 L 465,248 Z" fill="blue" /><path d="M 496,248 L 496,279 L 465,279 Z" fill="orange" /><path d="M 496,279 L 496,310 L 465,310 Z" fill="teal" /><path d="M 496,310 L 496,341 L 465,341 Z" fill="blue" /><path d="M 496,341 L 496,372 L 465,372 Z" fill="blue" /><path d="M 496,372 L 465,372 L 496,403 Z" fill="green" /><path d="M 496,403 L 496,434 L 465,434 Z" fill="teal" /><path d="M 465,434 L 496,434 L 465,465 Z" fill="teal" /><path d="M 496,465 L 496,496 L 465,496 Z" fill="orange" /></svg>