<?xml version="1.0" encoding="utf-8" ?>
<svg baseProfile="full" height="500" version="1.1" width="500" xmlns="http://www.w3.org/2000/svg" xmlns:ev="http://www.w3.org/2001/xml-events" xmlns:xlink="http://www.w3.org/1999/xlink"><defs /><path d="M0,50.0 A50.0,50.0 0 0 1 100.0,50.0 L50.0,50.0 Z" fill="black" /><path d="M50.0,0 A50.0,50.0 0 0 1 150.0,0 L100.0,0 Z" fill="white" /><path d="M0,150.0 A50.0,50.0 0 0 1 100.0,150.0 L50.0,150.0 Z" fill="black" /><path d="M50.0,100 A50.0,50.0 0 0 1 150.0,100 L100.0,100 Z" fill="white" /><path d="M100,0 A50.0,50.0 0 0 1 200.0,0 L150.0,0 Z" fill="white" /><path d="M150.0,50.0 A50.0,50.0 0 0 1 250.0,50.0 L200.0,50.0 Z" fill="black" /><path d="M100,100 A50.0,50.0 0 0 1 200.0,100 L150.0,100 Z" fill="white" /><path d="M150.0,150.0 A50.0,50.0 0 0 1 250.0,150.0 L200.0,150.0 Z" fill="black" /></svg>