<?xml version="1.0" encoding="utf-8" ?>
<svg baseProfile="full" height="500" version="1.1" width="500" xmlns="http://www.w3.org/2000/svg" xmlns:ev="http://www.w3.org/2001/xml-events" xmlns:xlink="http://www.w3.org/1999/xlink"><defs /><path d="M 62,0 L 0,0 L 62,62 Z" fill="yellow" /><path d="M 62,62 L 0,62 L 62,124 Z" fill="teal" /><path d="M 62,124 L 62,186 L 0,186 Z" fill="blue" /><path d="M 62,186 L 0,186 L 62,248 Z" fill="yellow" /><path d="M 62,248 L 62,310 L 0,248 Z" fill="green" /><path d="M 0,310 L 62,310 L 0,372 Z" fill="teal" /><path d="M 62,372 L 62,434 L 0,434 Z" fill="yellow" /><path d="M 62,434 L 62,496 L 0,496 Z" fill="blue" /><path d="M 124,0 L 62,0 L 124,62 Z" fill="teal" /><path d="M 124,62 L 124,124 L 62,124 Z" fill="orange" /><path d="M 124,124 L 124,186 L 62,186 Z" fill="blue" /><path d="M 124,186 L 124,248 L 62,248 Z" fill="teal" /><path d="M 124,248 L 124,310 L 62,310 Z" fill="orange" /><path d="M 124,310 L 124,372 L 62,372 Z" fill="green" /><path d="M 124,372 L 124,434 L 62,372 Z" fill="teal" /><path d="M 124,434 L 62,434 L 124,496 Z" fill="orange" /><path d="M 186,0 L 186,62 L 124,62 Z" fill="yellow" /><path d="M 124,62 L 186,62 L 124,124 Z" fill="teal" /><path d="M 186,124 L 186,186 L 124,186 Z" fill="orange" /><path d="M 186,186 L 186,248 L 124,186 Z" fill="teal" /><path d="M 124,248 L 186,248 L 124,310 Z" fill="teal" /><path d="M 186,310 L 186,372 L 124,372 Z" fill="yellow" /><path d="M 124,372 L 186,372 L 124,434 Z" fill="blue" /><path d="M 124,434 L 186,434 L 124,496 Z" fill="blue" /><path d="M 248,0 L 248,62 L 186,62 Z" fill="orange" /><path d="M 248,62 L 248,124 L 186,124 Z" fill="blue" /><path d="M 248,124 L 248,186 L 186,186 Z" fill="orange" /><path d="M 186,186 L 248,186 L 186,248 Z" fill="orange" /><path d="M 248,248 L 248,310 L 186,310 Z" fill="blue" /><path d="M 248,310 L 186,310 L 248,372 Z" fill="orange" /><path d="M 248,372 L 248,434 L 186,434 Z" fill="yellow" /><path d="M 248,434 L 186,434 L 248,496 Z" fill="green" /><path d="M 310,0 L 310,62 L 248,62 Z" fill="blue" /><path d="M 248,62 L 310,62 L 248,124 Z" fill="blue" /><path d="M 310,124 L 310,186 L 248,186 Z" fill="green" /><path d="M 248,186 L 310,186 L 248,248 Z" fill="green" /><path d="M 248,248 L 310,248 L 248,310 Z" fill="blue" /><path d="M 248,310 L 310,310 L 248,372 Z" fill="teal" /><path d="M 310,372 L 310,434 L 248,434 Z" fill="yellow" /><path d="M 310,434 L 310,496 L 248,496 Z" fill="blue" /><path d="M 310,0 L 372,0 L 310,62 Z" fill="yellow" /><path d="M 372,62 L 310,62 L 372,124 Z" fill="blue" /><path d="M 372,124 L 372,186 L 310,186 Z" fill="green" /><path d="M 310,186 L 372,186 L 310,248 Z" fill="orange" /><path d="M 372,248 L 372,310 L 310,310 Z" fill="teal" /><path d="M 372,310 L 372,372 L 310,372 Z" fill="yellow" /><path d="M 310,372 L 372,372 L 310,434 Z" fill="blue" /><path d="M 372,434 L 372,496 L 310,496 Z" fill="orange" /><path d="M 434,0 L 434,62 L 372,0 Z" fill="blue" /><path d="M 372,62 L 434,62 L 372,124 Z" fill="orange" /><path d="M 434,124 L 434,186 L 372,124 Z" fill="yellow" /><path d="M 434,186 L 434,248 L 372,248 Z" fill="teal" /><path d="M 372,248 L 434,248 L 372,310 Z" fill="blue" /><path d="M 434,310 L 434,372 L 372,310 Z" fill="blue" /><path d="M 372,372 L 434,372 L 372,434 Z" fill="yellow" /><path d="M 434,434 L 434,496 L 372,496 Z" fill="orange" /><path d="M 434,0 L 496,0 L 434,62 Z" fill="teal" /><path d="M 496,62 L 496,124 L 434,124 Z" fill="orange" /><path d="M 496,124 L 434,124 L 496,186 Z" fill="teal" /><path d="M 496,186 L 496,248 L 434,186 Z" fill="teal" /><path d="M 496,248 L 496,310 L 434,310 Z" fill="blue" /><path d="M 434,310 L 496,310 L 434,372 Z" fill="green" /><path d="M 434,372 L 496,372 L 434,434 Z" fill="yellow" /><path d="M 496,434 L 496,496 L 434,496 Z" fill="blue" /></svg>